<?xml version="1.0" encoding="utf-8"?>
<!-- Generator: Adobe Illustrator 28.4.1, SVG Export Plug-In . SVG Version: 6.00 Build 0)  -->
<svg version="1.1" id="Layer_1" xmlns="http://www.w3.org/2000/svg" xmlns:xlink="http://www.w3.org/1999/xlink" x="0px" y="0px"
	 viewBox="0 0 400 400" style="enable-background:new 0 0 400 400;" xml:space="preserve">
<style type="text/css">
	.st0{fill:#F1F2F2;}
</style>
<path class="st0" d="M357.03,400H42.97C19.24,400,0,380.76,0,357.03V42.97C0,19.24,19.24,0,42.97,0h314.05
	C380.76,0,400,19.24,400,42.97v314.05C400,380.76,380.76,400,357.03,400z"/>
<g>
	<path d="M199.89,334.99c-41.91,0-83.81,0-125.72,0c-1.2,0-2.4,0.04-3.6-0.03c-3.48-0.21-5.55-2.25-5.5-5.36
		c0.05-3.09,2.13-5.09,5.68-5.17c4.56-0.1,9.13-0.19,13.69,0.01c2.92,0.13,3.71-0.99,3.67-3.76c-0.12-10.69-0.05-21.37-0.05-32.06
		c0-71.69,0-143.37,0-215.06c0-7.51,1.04-8.56,8.47-8.56c39.75,0,79.49,0,119.24,0c6.94,0,8.24,1.29,8.25,8.12
		c0.01,5.04,0.26,10.1-0.08,15.12c-0.26,3.75,1.28,4.91,4.7,5.51c22.92,3.99,45.81,8.17,68.7,12.28c2.83,0.51,5.67,0.99,8.5,1.52
		c4.78,0.9,6.1,2.44,6.1,7.29c0.02,24.5,0.01,48.99,0.01,73.49c0,43.71,0,87.42,0,131.12c0,4.92,0.01,4.92,4.93,4.93
		c3.96,0.01,7.93-0.04,11.89,0.02c4.02,0.06,6.26,2.08,6.18,5.41c-0.08,3.2-2.23,5.12-6.09,5.14c-12.01,0.05-24.02,0.03-36.02,0.03
		C261.84,334.99,230.86,334.99,199.89,334.99z M98.65,200.04c0,40.09,0.03,80.19-0.06,120.28c-0.01,3.09,0.79,4.27,4.03,4.14
		c5.99-0.23,12.01-0.24,18,0c3.33,0.13,4.32-0.94,4.29-4.27c-0.14-18.37-0.08-36.73-0.06-55.1c0.01-5.97,1.73-7.66,7.77-7.67
		c15.37-0.02,30.73-0.01,46.1,0c6.88,0,8.48,1.59,8.48,8.46c0.01,17.89,0,35.77,0.01,53.66c0,4.84,0.01,4.84,4.66,4.85
		c5.4,0.01,10.8,0.01,16.21,0c4.93-0.01,4.95-0.01,4.95-5.03c0-79.59,0-159.18,0-238.76c0-5-0.02-5.01-4.97-5.01
		c-34.81,0-69.62,0-104.44,0c-4.96,0-4.97,0.01-4.97,4.88C98.65,120.33,98.65,160.18,98.65,200.04z M224.02,213.84
		c0,35.41,0.03,70.82-0.06,106.23c-0.01,3.13,0.63,4.42,4.15,4.4c23.05-0.15,46.09-0.13,69.14-0.02c3.06,0.01,4.17-0.74,4.16-4.01
		c-0.09-66.26-0.08-132.52-0.02-198.77c0-2.73-0.69-3.99-3.65-4.51c-23.26-4.08-46.5-8.32-69.72-12.64
		c-3.2-0.59-4.09,0.08-4.08,3.45C224.06,143.26,224.02,178.55,224.02,213.84z M176.12,296.54c0-8.17-0.06-16.33,0.04-24.5
		c0.03-2.63-0.95-3.64-3.59-3.62c-11.05,0.08-22.1,0.08-33.14,0c-2.68-0.02-3.55,1.11-3.54,3.68c0.06,16.21,0.08,32.42-0.02,48.64
		c-0.02,2.85,1.01,3.74,3.8,3.7c10.93-0.12,21.86-0.13,32.78,0c2.88,0.03,3.76-1,3.72-3.77
		C176.05,312.63,176.13,304.58,176.12,296.54z"/>
	<path d="M199.42,216.05c0,3.59,0.1,7.19-0.03,10.78c-0.14,4.11-2.17,6.28-6.25,6.36c-7.31,0.14-14.62,0.15-21.92,0
		c-4.37-0.09-6.45-2.12-6.55-6.46c-0.16-7.3-0.17-14.62,0.01-21.92c0.1-4.32,2.27-6.3,6.61-6.36c7.07-0.1,14.14-0.09,21.21-0.01
		c4.74,0.05,6.74,2.12,6.92,6.82c0.01,0.24,0.01,0.48,0.01,0.72c0,3.35,0,6.71,0,10.06C199.43,216.05,199.42,216.05,199.42,216.05z
		 M188.35,215.87c0-6.35,0-6.38-5.7-6.34c-7.3,0.04-6.99-0.84-6.96,5.77c0.03,7.2-0.87,6.91,5.85,6.88
		C188.82,222.15,188.33,222.95,188.35,215.87z"/>
	<path d="M199.43,117.39c0,3.47,0.07,6.95-0.02,10.42c-0.12,4.54-2.14,6.66-6.62,6.72c-7.19,0.1-14.37,0.1-21.56,0
		c-4.3-0.06-6.45-2.07-6.55-6.42c-0.17-7.3-0.17-14.61,0-21.92c0.1-4.31,2.19-6.31,6.6-6.39c7.18-0.15,14.38-0.16,21.56,0.01
		c4.51,0.1,6.47,2.27,6.57,6.8C199.49,110.2,199.43,113.8,199.43,117.39z M181.92,123.49c6.42,0,6.42,0,6.43-5.64
		c0.01-7.03,0.01-7.06-5.73-7.02c-7.46,0.04-6.94-0.83-6.93,6.15C175.69,123.94,174.97,123.47,181.92,123.49z"/>
	<path d="M129.83,134.57c-3.48,0-6.97,0.06-10.44-0.02c-4.57-0.11-6.67-2.12-6.72-6.62c-0.09-7.2-0.09-14.41,0-21.61
		c0.06-4.31,2.12-6.45,6.46-6.53c7.2-0.13,14.41-0.14,21.61,0.01c4.31,0.09,6.52,2.2,6.62,6.46c0.18,7.2,0.18,14.41,0.01,21.61
		c-0.11,4.67-2.34,6.58-7.09,6.7c-0.24,0.01-0.48,0-0.72,0C136.31,134.58,133.07,134.58,129.83,134.57z M136.39,117.15
		c0-6.33,0-6.33-5.68-6.33c-7.01,0-7.01,0-7.01,5.78c-0.01,6.89-0.01,6.91,5.92,6.89C137.06,123.46,136.34,124.15,136.39,117.15z"/>
	<path d="M112.64,215.74c0-3.6-0.08-7.21,0.02-10.8c0.11-4.17,2.09-6.36,6.15-6.44c7.44-0.14,14.89-0.13,22.33-0.01
		c3.76,0.06,5.99,1.97,6.12,5.72c0.26,7.67,0.24,15.37,0.04,23.04c-0.1,3.72-2.28,5.82-6,5.91c-7.56,0.19-15.13,0.19-22.69,0.02
		c-3.85-0.08-5.83-2.33-5.95-6.28C112.55,223.18,112.64,219.46,112.64,215.74z M130.23,209.51c-7.05,0.04-6.52-0.66-6.54,6.62
		c0,0.84,0.07,1.68-0.01,2.51c-0.24,2.61,0.87,3.63,3.53,3.57c10.9-0.26,8.89,1.52,9.21-8.98c0.08-2.78-0.83-4.05-3.68-3.73
		C131.92,209.6,131.07,209.52,130.23,209.51z"/>
	<path d="M129.98,149.32c3.72,0,7.44-0.06,11.15,0.02c3.76,0.07,5.9,1.59,6.04,5.24c0.29,7.9,0.29,15.82,0.03,23.72
		c-0.12,3.69-2.24,5.31-5.93,5.35c-7.55,0.07-15.11,0.08-22.66,0c-3.87-0.04-5.85-1.9-5.92-5.72c-0.13-7.55-0.13-15.11-0.01-22.66
		c0.06-3.94,2.13-5.83,6.15-5.91C122.54,149.26,126.26,149.32,129.98,149.32z M136.39,166.64c-0.07-7.53,0.8-6.64-6.73-6.71
		c-0.96-0.01-1.92,0.07-2.87-0.01c-2.38-0.19-3.19,0.99-3.11,3.23c0.09,2.27,0.09,4.55,0,6.82c-0.09,2.31,0.9,3.31,3.21,3.12
		c1.07-0.09,2.15,0,3.23-0.01C137.05,173.03,136.34,173.81,136.39,166.64z"/>
	<path d="M181.79,183.67c-3.6,0-7.19,0.05-10.79-0.01c-3.99-0.07-6.2-1.89-6.3-5.8c-0.19-7.55-0.19-15.1-0.01-22.65
		c0.09-3.91,2.3-5.84,6.24-5.87c7.43-0.07,14.86-0.07,22.29,0c3.9,0.04,6.06,2.04,6.14,5.98c0.15,7.43,0.15,14.86,0,22.29
		c-0.08,4.1-2.24,5.98-6.43,6.05C189.22,183.72,185.51,183.67,181.79,183.67z M188.35,166.56c0-0.84-0.08-1.68,0.02-2.51
		c0.37-3.04-0.72-4.29-3.98-4.18c-10.26,0.34-8.51-1.47-8.71,8.74c-0.01,0.36,0.04,0.72,0,1.08c-0.32,2.74,1.03,3.68,3.59,3.41
		c0.83-0.09,1.67,0,2.51-0.01C188.87,173.01,188.32,173.97,188.35,166.56z"/>
	<path d="M243.72,145.66c0-3.6-0.06-7.2,0.01-10.79c0.08-3.95,1.98-6.18,5.86-6.27c7.67-0.17,15.35-0.16,23.02-0.01
		c3.7,0.07,5.88,2.2,5.96,5.89c0.16,7.55,0.17,15.11-0.01,22.66c-0.1,3.98-2.13,6.02-6.12,6.11c-7.67,0.18-15.35,0.18-23.02-0.01
		c-3.73-0.09-5.6-2.3-5.68-6.06C243.66,153.34,243.73,149.5,243.72,145.66z M260.77,152.27c7.5-0.06,6.77,0.78,6.79-6.69
		c0.02-6.72,0.39-5.95-6.81-5.97c-7.08-0.01-6.41-0.57-6.41,6.34C254.35,152.91,253.69,152.22,260.77,152.27z"/>
	<path d="M261.05,311.85c-3.72,0-7.43,0.09-11.15-0.02c-4.13-0.12-6.12-2.15-6.16-6.32c-0.07-7.43-0.07-14.87,0.01-22.3
		c0.04-3.67,1.7-5.81,5.37-5.93c8.02-0.26,16.06-0.23,24.08-0.01c3.31,0.09,5.29,2.39,5.35,5.7c0.15,7.67,0.18,15.34,0.01,23.01
		c-0.08,3.68-2.29,5.68-6.01,5.82c-3.83,0.14-7.67,0.03-11.51,0.03C261.05,311.85,261.05,311.85,261.05,311.85z M261.14,288.11
		c-0.84,0-1.69,0.09-2.51-0.02c-3.22-0.42-4.81,0.75-4.29,4.16c0.09,0.59,0.01,1.2,0.01,1.8c0.05,7.37-0.77,6.73,6.77,6.74
		c6.46,0.02,6.47,0,6.46-6.36C267.55,287.38,268.11,288.16,261.14,288.11z"/>
	<path d="M243.72,195.37c0-3.71-0.07-7.43,0.02-11.14c0.1-4.03,1.96-5.97,6-6.02c7.55-0.1,15.1-0.1,22.65,0.01
		c3.91,0.05,6.1,2.1,6.19,5.99c0.16,7.43,0.15,14.86,0.01,22.29c-0.08,3.87-1.89,5.93-5.64,6.18c-7.89,0.54-15.81,0.47-23.7,0.04
		c-3.81-0.2-5.42-2.27-5.5-6.2C243.66,202.8,243.72,199.08,243.72,195.37z M260.86,201.92c0.84,0,1.69-0.1,2.52,0.02
		c3.37,0.49,4.36-1.01,4.26-4.27c-0.3-9.64,1.23-8.37-8.39-8.48c-0.6-0.01-1.2,0.04-1.8,0c-2.36-0.16-3.26,1.01-3.1,3.27
		c0.07,0.95,0,1.92,0.01,2.88C254.39,202.72,253.63,201.86,260.86,201.92z"/>
	<path d="M261.05,262.19c-3.84-0.01-7.68,0.08-11.52-0.03c-3.82-0.11-5.73-2.01-5.78-5.86c-0.09-7.56-0.1-15.12,0.01-22.68
		c0.05-3.83,1.98-5.7,5.86-5.74c7.56-0.08,15.12-0.07,22.68-0.01c3.98,0.03,6.17,1.91,6.26,5.84c0.18,7.56,0.18,15.12-0.01,22.68
		c-0.1,3.86-2.35,5.72-6.34,5.8C268.49,262.25,264.77,262.2,261.05,262.19z M261.05,238.44c-7.33,0.08-6.69-0.91-6.7,6.36
		c-0.01,7.5-0.62,6.79,6.72,6.78c7.16-0.01,6.49,0.76,6.5-6.58C267.56,237.58,268.18,238.51,261.05,238.44z"/>
</g>
</svg>
