<?xml version="1.0" encoding="utf-8"?>
<!-- Generator: Adobe Illustrator 28.4.1, SVG Export Plug-In . SVG Version: 6.00 Build 0)  -->
<svg version="1.1" id="Layer_1" xmlns="http://www.w3.org/2000/svg" xmlns:xlink="http://www.w3.org/1999/xlink" x="0px" y="0px"
	 viewBox="0 0 400 400" style="enable-background:new 0 0 400 400;" xml:space="preserve">
<style type="text/css">
	.st0{fill:#F1F2F2;}
</style>
<path class="st0" d="M357.03,400H42.97C19.24,400,0,380.76,0,357.03V42.97C0,19.24,19.24,0,42.97,0h314.05
	C380.76,0,400,19.24,400,42.97v314.05C400,380.76,380.76,400,357.03,400z"/>
<g>
	<path d="M209.74,65.53c1.73,1.05,3.47,2.08,4.51,3.92c0.52,0.93,1.47,1.19,2.37,1.53c19.79,7.63,31.19,21.9,33.85,43
		c0.28,2.2,0.85,3.56,3.39,4.09c3.9,0.81,6.38,4.1,6.43,8.28c0.05,4.31,0.97,8.85-2.35,12.57c-0.56,0.63-0.03,1.33,0.26,1.96
		c5.63,12.21-1.96,24.57-13.78,26.94c-1.58,0.32-2.3,1.02-2.62,2.7c-1.82,9.86-6.68,18.01-14.34,24.45
		c-1.45,1.22-1.93,2.52-1.87,4.32c0.28,8.94-1.53,6.58,6.83,9.88c14.92,5.88,29.93,11.55,44.86,17.42
		c14.32,5.63,24.09,20.02,24.21,35.44c0.03,4.03,0.04,8.07,0,12.1c-0.02,1.4,0.2,2.51,1.51,3.36c1.79,1.17,2.64,2.96,2.8,5.11
		c0.34,4.64,0.35,9.28-0.01,13.92c-0.16,2.06-0.96,3.79-2.62,4.94c-1.43,0.99-1.71,2.23-1.69,3.82c0.06,6.31,0.07,12.63,0,18.94
		c-0.06,6.26-4.58,10.9-10.76,10.93c-14.21,0.07-28.42,0.01-42.63,0.04c-2.29,0-3.95-0.86-4.63-3.09c-0.54-1.79,0.16-3.27,1.59-4.4
		c0.88-0.7,1.92-0.78,2.99-0.78c3.33,0.01,6.67-0.15,10,0.05c2.55,0.15,3.3-0.76,3.29-3.28c-0.08-20.52-0.05-41.05-0.04-61.57
		c0-1.14-0.02-2.29,0.14-3.41c0.37-2.56,2.17-4.24,4.3-4.16c2.34,0.09,4.07,1.9,4.12,4.59c0.08,4.56,0.14,9.12-0.01,13.68
		c-0.08,2.35,0.6,3.28,3.09,3.21c5.78-0.16,11.58-0.14,17.36,0c2.36,0.06,3.02-0.8,2.96-3.06c-0.15-5.78,0.37-11.62-1.08-17.28
		c-2.61-10.16-8.65-17.51-18.5-21.42c-9.7-3.84-19.47-7.5-29.17-11.33c-1.68-0.66-2.84-0.55-4.25,0.65
		c-5.54,4.72-11.21,9.29-16.79,13.96c-1.9,1.59-3.96,2.51-6.49,2.35c-3.33-0.21-5.24,1.79-4.91,5.26
		c0.51,5.49,1.15,10.97,1.73,16.46c1.15,10.97,2.3,21.95,3.45,32.92c1.06,10.19,2.14,20.38,3.15,30.58
		c0.13,1.35,0.73,1.83,2.01,1.81c2.19-0.03,4.39-0.06,6.58,0.03c2.54,0.1,4.26,1.82,4.27,4.08c0.01,2.27-1.72,3.96-4.24,4.13
		c-0.7,0.05-1.4,0.02-2.1,0.02c-38.42,0-76.83,0-115.25,0c-8.5,0-12.61-4.09-12.62-12.54c-0.01-5.79-0.04-11.58,0.02-17.37
		c0.02-1.6-0.26-2.84-1.69-3.82c-1.67-1.15-2.51-2.89-2.65-4.93c-0.32-4.82-0.39-9.63,0.08-14.44c0.18-1.86,1-3.44,2.52-4.43
		c1.48-0.96,1.7-2.2,1.74-3.79c0.17-6.73-0.74-13.52,1.01-20.17c3.39-12.87,10.97-22.23,23.43-27.2
		c16.12-6.43,32.32-12.69,48.52-18.91c2.14-0.82,2.8-1.93,2.98-4.2c0.37-4.51-0.82-7.8-4.44-10.9c-6.59-5.66-10.18-13.3-11.79-21.8
		c-0.33-1.73-1.02-2.53-2.74-2.89c-12.26-2.52-19.24-15.32-13.6-26.69c0.54-1.09,0.36-1.79-0.26-2.84
		c-3.08-5.22-2.7-10.73-0.7-16.15c0.82-2.22,2.85-3.72,5.2-4.05c2.59-0.37,3.19-1.86,3.38-4.07c0.92-10.66,5.06-19.97,11.96-28.08
		c5.44-6.4,12.11-11.14,19.94-14.18c2.14-0.83,4.14-1.62,5.52-3.69c0.73-1.09,2.19-1.69,3.32-2.51
		C197.11,65.53,203.42,65.53,209.74,65.53z M139.25,292.13c0,10.61,0.05,21.21-0.04,31.82c-0.02,2.28,0.69,3.04,3.01,3.02
		c11.75-0.1,23.49-0.08,35.24-0.01c1.84,0.01,2.61-0.47,2.81-2.44c1.11-11.41,2.36-22.81,3.56-34.21
		c1.15-10.97,2.31-21.94,3.45-32.91c0.44-4.18,0.97-8.35,1.23-12.54c0.21-3.35-1.71-5.17-4.87-4.95c-2.53,0.17-4.59-0.75-6.49-2.34
		c-5.64-4.73-11.35-9.38-16.97-14.14c-1.31-1.11-2.4-1.27-4.02-0.63c-9.85,3.93-19.79,7.62-29.6,11.64
		c-9.87,4.03-15.93,11.5-18.34,21.83c-1.3,5.59-0.81,11.33-0.94,17.02c-0.05,2.07,0.69,2.77,2.74,2.73
		c5.61-0.1,11.22-0.03,16.83-0.03c3.78,0,3.78-0.01,3.79-3.72c0.01-4.47-0.05-8.94,0.05-13.41c0.06-2.41,1.69-4.04,3.87-4.27
		c2.06-0.21,3.95,1.28,4.42,3.64c0.22,1.11,0.25,2.26,0.25,3.4C139.25,271.79,139.24,281.96,139.25,292.13z M200.26,141.5
		c-10.26,0-20.53,0.05-30.79-0.04c-2.17-0.02-2.99,0.68-2.89,2.86c0.13,2.89-0.02,5.79,0.04,8.68c0.1,5.17-0.55,10.39,0.4,15.49
		c3.16,16.98,16.98,27.9,34.6,27.55c17.76-0.35,31.97-14.52,32.25-32.26c0.1-6.4-0.06-12.81,0.08-19.21
		c0.05-2.42-0.75-3.16-3.17-3.13C220.61,141.57,210.44,141.5,200.26,141.5z M193.56,95.45c0,6.48,0.04,12.97-0.03,19.45
		c-0.02,1.86,0.52,2.76,2.53,2.68c2.8-0.11,5.61-0.11,8.41,0c2,0.08,2.63-0.8,2.53-2.67c-0.09-1.66-0.1-3.34,0.06-4.99
		c0.23-2.37,1.96-4,4.13-3.97c2.35,0.03,3.79,1.33,4.17,3.59c0.25,1.45,0.2,2.96,0.22,4.45c0.04,3.54,0.02,3.56,3.46,3.56
		c5.87,0.01,11.74,0.03,17.61-0.01c5.93-0.04,6.21,0.94,4.99-5.82c-2.56-14.16-10.41-24.43-23.25-30.89c-2.47-1.24-2.78-1-2.81,1.81
		c-0.03,2.98,0.09,5.97-0.1,8.93c-0.17,2.71-2.05,4.32-4.45,4.21c-2.25-0.11-3.82-1.79-4.04-4.38c-0.07-0.78-0.03-1.58-0.03-2.36
		c0-4.38-0.05-8.76,0.02-13.14c0.02-1.68-0.59-2.37-2.31-2.32c-2.8,0.09-5.61,0.12-8.41-0.01c-2.04-0.1-2.79,0.59-2.76,2.69
		C193.62,82.66,193.56,89.05,193.56,95.45z M200.26,133.24c6.23,0,12.45,0,18.68,0c10,0,20,0.01,30-0.02c0.91,0,2.2,0.41,2.54-0.78
		c0.5-1.77,0.63-3.74-0.03-5.43c-0.59-1.51-2.34-0.8-3.56-0.8c-26.49-0.04-52.98-0.03-79.46-0.03c-5.61,0-11.23-0.01-16.84,0.01
		c-0.85,0-2.06-0.31-2.41,0.58c-0.73,1.82-0.65,3.85-0.1,5.67c0.41,1.37,1.98,0.78,3.04,0.78
		C168.16,133.25,184.21,133.24,200.26,133.24z M184.94,98.81c0-5.35,0.01-10.7-0.01-16.05c-0.01-2.94-0.35-3.19-2.94-1.87
		c-13.86,7.09-21.65,18.44-23.63,33.84c-0.26,1.99,0.35,2.88,2.53,2.85c7.1-0.09,14.2-0.08,21.31,0c2.03,0.02,2.82-0.65,2.78-2.73
		C184.87,109.51,184.93,104.16,184.94,98.81z M130.64,315.19c0-3.24-0.04-6.49,0.02-9.73c0.03-1.59-0.39-2.45-2.2-2.43
		c-6.31,0.06-12.63,0.05-18.94,0.01c-1.54-0.01-2.23,0.52-2.21,2.14c0.05,5.96-0.02,11.93,0.05,17.89c0.03,2.8,1.07,3.81,3.87,3.84
		c5.7,0.06,11.4-0.02,17.1,0.05c1.68,0.02,2.38-0.55,2.34-2.28C130.58,321.51,130.64,318.35,130.64,315.19z M269.89,314.92
		c0,3.24,0.06,6.49-0.02,9.73c-0.04,1.72,0.64,2.31,2.33,2.29c5.7-0.07,11.4,0.01,17.1-0.05c2.8-0.03,3.85-1.04,3.88-3.83
		c0.07-5.96,0-11.93,0.05-17.89c0.01-1.6-0.65-2.16-2.2-2.15c-6.31,0.05-12.63,0.06-18.94,0c-1.8-0.02-2.24,0.82-2.21,2.42
		C269.93,308.6,269.89,311.76,269.89,314.92z M200.28,217.9c3.22,1,5.65-0.69,7.99-2.87c1.85-1.73,3.77-3.43,5.87-4.83
		c2.42-1.63,3.07-3.72,2.89-6.49c-0.12-1.81-0.65-2.04-2.23-1.49c-4.4,1.53-8.93,2.37-13.62,2.43c-5.22,0.07-10.27-0.74-15.2-2.41
		c-0.74-0.25-1.8-1.26-2.38,0.3c-0.74,1.97,0.13,5.26,1.77,6.63c2.55,2.14,5.25,4.11,7.63,6.41
		C195.07,217.58,197.28,218.5,200.28,217.9z M117.11,284.6c-2.36,0-4.72,0-7.08,0c-7.1,0-7.01,0-7.01,7.06
		c0,2.26,0.86,2.84,2.94,2.81c5.86-0.09,11.72-0.03,17.58-0.03c7.29,0,7.21,0,7.15-7.24c-0.02-2.15-0.86-2.69-2.82-2.64
		C124.29,284.68,120.7,284.6,117.11,284.6z M283.41,294.44c3.41,0,6.82,0,10.23,0c3.81-0.01,3.81-0.01,3.82-3.69
		c0-0.87,0-1.75,0-2.62c-0.01-3.52-0.01-3.53-3.41-3.53c-5.69-0.01-11.37-0.09-17.06,0.02c-8.47,0.15-6.91-1.66-7.13,7.43
		c-0.04,1.88,0.79,2.44,2.52,2.41C276.06,294.4,279.73,294.44,283.41,294.44z M191.68,299.79c-0.67,2.2-0.48,4.19-0.92,6.04
		c-0.54,2.28,0.17,3.76,1.79,5.31c4.37,4.18,8.59,8.53,12.87,12.81c0.81,0.81,1.53,1.76,2.47,2.35c1.25,0.78,3.43,1.46,3.74-0.18
		c0.47-2.46,0.7-5.59-1.17-7.57C204.42,312.21,198.1,306.16,191.68,299.79z M167.41,218.45c4.99,4.13,9.63,7.95,14.25,11.81
		c0.93,0.78,1.52,0.53,2.12-0.36c1.27-1.89,2.53-3.79,3.86-5.63c0.69-0.96,0.68-1.65-0.3-2.43c-2.66-2.14-5.26-4.35-7.89-6.53
		c-0.72-0.6-1.55-0.9-2.44-0.57C173.93,215.89,170.87,217.11,167.41,218.45z M218.09,230.79c0.46-0.32,1.05-0.68,1.58-1.12
		c3.31-2.73,6.6-5.48,9.92-8.21c3.52-2.89,3.55-2.93-0.79-4.56c-8.12-3.05-5.16-3.38-11.85,1.9c-1.44,1.13-2.87,2.31-4.1,3.66
		C212.14,223.24,216.81,230.74,218.09,230.79z M193.78,280.49c-0.96,1.51-0.41,3.28-0.86,4.81c-0.74,2.51,0.3,4.09,2.05,5.7
		c2.58,2.36,5.01,4.89,7.44,7.41c2.17,2.24,4.26,4.55,6.38,6.83c0.3-0.18,0.6-0.35,0.91-0.53c-0.58-3.36,0.57-7.4-1.63-10
		C203.75,289.62,198.62,285.22,193.78,280.49z M199.86,238.03c1.35,0,2.05,0.01,2.75,0c2.3-0.02,5.3-2.64,5.63-4.9
		c0.19-1.28-3.49-6.15-4.85-6.42c-5.2-1.02-7.88,0.25-10.53,4.84c-0.57,0.99-0.36,1.68,0.04,2.65
		C194.38,237.72,196.96,238.78,199.86,238.03z M246.15,141.5c-3.62-0.01-3.63-0.01-3.64,3.35c-0.01,4.21,0.05,8.42-0.02,12.62
		c-0.03,1.87,0.72,2.03,2.24,1.47c5.86-2.15,8.47-8.74,5.74-14.52C249.53,142.44,248.34,140.96,246.15,141.5z M158,150.75
		C158,150.75,158.01,150.75,158,150.75c0.01-1.92,0.1-3.84-0.02-5.76c-0.08-1.18,0.74-3.02-1.04-3.33c-1.78-0.31-3.8-0.78-5.4,0.91
		c-4.97,5.24-2.29,14.66,4.7,16.53c1.28,0.34,1.8,0.04,1.78-1.29C157.98,155.46,158,153.11,158,150.75z M195.88,259.46
		c-1.24,5.49-2.29,10.25,2.95,13.8c1.85,1.25,3.22,3.19,4.86,4.75c0.96,0.91,1.7,2.14,3.16,2.67c0.48-2.94-0.46-5.58-0.46-8.28
		c0-1.35-0.32-2.59-1.31-3.59C202.15,265.84,199.22,262.85,195.88,259.46z M203.57,255.63c0.27-0.13,0.54-0.25,0.81-0.38
		c-0.07-1.44-0.03-2.9-0.22-4.33c-0.59-4.5-0.97-4.75-5.61-4.25c-0.6,0.07-1.27,0.01-1.58,0.67c-0.35,0.75,0.02,1.35,0.52,1.88
		C199.51,251.36,201.54,253.49,203.57,255.63z M196.01,326.92c-2.3-2.37-4.28-4.41-6.3-6.49c-2.12,5.56-1.48,6.53,4.13,6.49
		C194.44,326.92,195.05,326.92,196.01,326.92z"/>
</g>
</svg>
