<?xml version="1.0" encoding="utf-8"?>
<!-- Generator: Adobe Illustrator 28.4.1, SVG Export Plug-In . SVG Version: 6.00 Build 0)  -->
<svg version="1.1" id="Layer_1" xmlns="http://www.w3.org/2000/svg" xmlns:xlink="http://www.w3.org/1999/xlink" x="0px" y="0px"
	 viewBox="0 0 400 400" style="enable-background:new 0 0 400 400;" xml:space="preserve">
<style type="text/css">
	.st0{fill:#F1F2F2;}
</style>
<path class="st0" d="M357.03,400H42.97C19.24,400,0,380.76,0,357.03V42.97C0,19.24,19.24,0,42.97,0h314.05
	C380.76,0,400,19.24,400,42.97v314.05C400,380.76,380.76,400,357.03,400z"/>
<g>
	<path d="M106.76,335c-5.32-2.2-7.97-6.07-7.58-11.92c0.11-1.66,0.05-3.34,0.02-5c-0.05-2.4,0.54-4.76,2.29-6.26
		c3.06-2.61,3.35-6.14,4.05-9.62c2.98-14.78,5.6-29.64,8.94-44.35c1.87-8.21,6.56-14.25,14.05-18.04c1.75-0.89,2.39-2,2.36-3.9
		c-0.05-2.93-0.59-5.75-1.42-8.53c-0.98-3.28-1.95-6.55-2.92-9.83c-2.08-7.01-0.72-13.6,2.8-19.76c4.13-7.23,6.11-15.07,7.23-23.21
		c0.31-2.23-0.22-3.87-1.99-5.55c-4.69-4.46-5.55-10.98-2.52-16.69c1.69-3.18,0.81-6.53,0.83-9.81c0.01-1.5-1.53-1.13-2.47-1.37
		c-5.23-1.32-8.84-5.75-8.96-11.02c-0.11-4.94,3.62-9.69,8.63-10.98c0.08-0.02,0.17-0.08,0.25-0.07c4.61,0.73,5.14-2.51,6.14-5.83
		c4.72-15.73,13.67-28.33,27.93-36.88c2.83-1.7,5.43-3.43,7.25-6.54c2.56-4.38,8.36-5.99,13-3.92c2.26,1.01,4.37,1.05,6.61,0.75
		c6.13-0.82,12.25-0.67,18.35,0.28c1.28,0.2,2.34,0.1,3.52-0.49c5.97-3.03,12.59-0.74,15.48,5.35c0.56,1.18,1.33,1.99,2.44,2.63
		c16.36,9.27,26.79,23.11,31.52,41.25c0.6,2.32,1.49,3.29,4.05,3.27c5.38-0.05,9.83,4.02,10.78,9.38
		c0.91,5.13-2.17,10.69-7.34,12.26c-2.71,0.82-3.34,2.13-3.18,4.67c0.24,3.83,0.03,7.64,0.95,11.48c1.14,4.76-0.62,9.05-4.05,12.47
		c-1.27,1.26-1.7,2.52-1.52,4.2c0.87,8,2.4,15.86,6.55,22.85c4.98,8.39,5.6,16.95,2.31,26.02c-1.62,4.44-3.21,8.93-3.09,13.79
		c0.03,1.34,0.32,2.3,1.71,2.9c8.93,3.82,14.14,10.65,16.06,20.09c0.4,1.98,0.9,3.94,1.15,5.94c0.33,2.57-1.02,4.49-3.27,4.97
		c-2.22,0.48-4.2-0.75-4.93-3.28c-0.63-2.19-1.05-4.44-1.52-6.67c-1.37-6.54-5.1-11.04-11.43-13.31
		c-8.18-2.93-16.36-5.85-24.54-8.76c-2.73-0.97-2.75-0.94-2.37,2.06c1.06,8.45-4.01,18.46-11.58,22.37
		c-6.89,3.55-13.18,1.64-18.81-2.9c-1.94-1.56-2.45-1.03-3.16,0.88c-0.59,1.58-1.08,3.1-1.07,4.82c0.03,19.58,0.02,39.15,0.03,58.73
		c0,1.47-0.32,3.01,2.09,3.08c2.25,0.06,3.13-0.57,3.09-2.95c-0.12-7.81-0.04-15.63-0.04-23.44c0-8.87-0.01-17.73,0.02-26.6
		c0-1.31,0.11-2.64,0.36-3.92c0.44-2.21,1.91-3.3,4.14-3.23c2.27,0.07,3.54,1.4,3.96,3.53c0.18,0.93,0.12,1.92,0.12,2.89
		c0.01,16.77,0.06,33.54-0.05,50.3c-0.02,2.63,0.66,3.48,3.37,3.43c9.57-0.16,19.14-0.13,28.71-0.01c2.35,0.03,2.98-0.74,2.96-3.02
		c-0.1-12.47-0.05-24.93-0.04-37.4c0-0.88-0.03-1.76,0.03-2.63c0.17-2.49,1.93-4.26,4.16-4.22c2.12,0.04,3.92,1.73,4.02,4.1
		c0.14,2.98,0.06,5.97,0.06,8.95c0.01,4.13,0.07,8.25-0.03,12.38c-0.04,1.86,0.7,2.46,2.49,2.44c6.85-0.06,13.7-0.08,20.54,0.01
		c2.14,0.03,2.48-0.74,2.05-2.69c-1.27-5.83-2.36-11.69-3.52-17.54c-0.14-0.69-0.27-1.38-0.36-2.07c-0.39-2.82,0.93-4.96,3.32-5.4
		c2.21-0.41,4.29,1.08,4.89,3.77c0.96,4.28,1.78,8.59,2.64,12.88c0.6,3.01,1.2,6.02,1.74,9.04c0.38,2.1,1.05,3.89,2.78,5.43
		c2.01,1.78,3.01,4.27,2.95,7.08c-0.04,1.67-0.09,3.34,0.02,5c0.39,5.85-2.25,9.72-7.58,11.92c-40.21,0-80.42,0-120.63,0
		c-1.63-1.5-2.94-3.14-1.92-5.52c1-2.32,3.03-2.69,5.27-2.58c0.88,0.04,1.77-0.1,2.63,0.03c2.69,0.39,3.42-0.7,3.4-3.37
		c-0.12-16.77-0.06-33.54-0.05-50.31c0-1.05-0.07-2.14,0.17-3.14c0.5-2.12,1.88-3.33,4.15-3.29c2.13,0.04,3.51,1.14,3.89,3.21
		c0.27,1.45,0.36,2.96,0.37,4.44c0.02,16.42,0.01,32.83,0.03,49.25c0,1.4-0.46,3.07,1.96,3.22c2.34,0.14,3.24-0.51,3.23-3.04
		c-0.09-19.58-0.06-39.16-0.04-58.73c0-1.62-0.42-3.07-0.96-4.58c-0.77-2.15-1.33-2.78-3.48-0.99c-6.47,5.37-14.34,6.03-20.45,1.72
		c-7.32-5.15-10.01-12.61-9.63-21.3c0.13-2.95,0.21-3.05-2.45-2.12c-8.04,2.81-16.09,5.56-24.1,8.43
		c-6.24,2.24-10.43,6.65-11.81,13.11c-3.24,15.27-6.14,30.61-9.25,45.91c-0.36,1.76,0.26,2.2,1.83,2.19
		c7.02-0.03,14.05-0.04,21.07,0.01c1.74,0.01,2.3-0.75,2.25-2.4c-0.08-2.98-0.02-5.97-0.02-8.95c0.01-4.13-0.06-8.25,0.06-12.38
		c0.07-2.38,1.86-4.07,3.99-4.14c2.22-0.06,4.02,1.7,4.2,4.18c0.07,0.87,0.04,1.75,0.04,2.63c0,12.38,0.06,24.76-0.05,37.14
		c-0.02,2.45,0.56,3.61,3.2,3.31c1.56-0.18,3.16,0.01,4.74-0.04c2.16-0.06,4.11,0.34,4.96,2.61c0.86,2.32-0.13,4.09-1.99,5.48
		C140.83,335,123.8,335,106.76,335z M199.37,141.33c-13.69,0-27.39,0-41.08,0.01c-1.37,0-2.94-0.34-2.93,1.92
		c0.06,9.57-0.61,19.2,0.23,28.69c2.32,26.33,25.84,42.84,49.55,39.76c20.78-2.7,37.8-21.35,37.93-42.35
		c0.05-8.16,0.03-16.33,0.03-24.49c0-3.53-0.01-3.54-3.43-3.54C226.23,141.33,212.8,141.33,199.37,141.33z M134.29,210.3
		c-0.04,3.66,0.85,6.78,1.82,9.88c1.37,4.34,3.04,8.63,3.3,13.22c0.12,2.02,0.8,2.06,2.43,1.47c6.35-2.29,12.72-4.53,19.12-6.65
		c3.78-1.26,7.23-2.97,10.33-5.54c4.02-3.33,3.92-7.75-0.39-10.56c-10.52-6.86-17.73-16.28-21.59-28.24
		c-0.86-2.67-1.41-5.42-1.88-8.19c-0.11-0.65-0.2-1.53-1.13-1.55c-1.05-0.03-1.22,0.88-1.35,1.64c-0.19,1.12-0.25,2.26-0.4,3.39
		c-1.09,8.38-4.13,16.08-8.12,23.46C135.09,205.13,134.08,207.75,134.29,210.3z M226.03,217.01c0.25,1.36-0.62,3.04,0.83,4.17
		c2.22,1.72,4.26,3.94,6.78,4.94c7.91,3.12,16.01,5.76,24.04,8.58c0.98,0.35,1.68,0.28,1.79-1.04c0.42-5.31,2.35-10.24,3.94-15.25
		c1.93-6.08,1.61-11.85-1.69-17.48c-2.61-4.47-4.66-9.25-5.85-14.33c-0.82-3.5-1.59-7.01-1.86-10.61c-0.07-0.88-0.3-1.81-1.44-1.9
		c-1.27-0.1-1.29,0.91-1.46,1.77c-0.08,0.43-0.21,0.85-0.28,1.29c-2.42,14.48-10.15,25.59-21.85,34.07
		C226.85,212.75,225.36,214.18,226.03,217.01z M192.13,96.71c0.01,0,0.03,0,0.04,0c0,6.49,0.04,12.99-0.03,19.48
		c-0.02,1.85,0.49,2.75,2.53,2.67c3.33-0.12,6.67-0.1,10-0.01c1.8,0.05,2.55-0.61,2.5-2.44c-0.08-3.16-0.04-6.32-0.01-9.48
		c0.03-3.35,1.64-5.34,4.18-5.25c2.59,0.08,4.07,2.01,4.1,5.4c0.03,3.16,0,6.32,0.02,9.48c0.01,0.76-0.15,1.6,0.72,2.09
		c2.41,1.37,5.18-0.18,5.18-2.93c0.01-11.85,0.02-23.69-0.01-35.54c0-1.4-0.2-2.8-0.37-4.19c-0.17-1.42-1.07-2.22-2.44-2.34
		c-1.41-0.12-2.35,0.69-2.77,1.97c-0.24,0.73-0.3,1.54-0.31,2.32c-0.04,2.81,0.01,5.62-0.03,8.42c-0.04,3.21-1.5,5.06-4.02,5.2
		c-2.41,0.13-4.19-1.68-4.38-4.88c-0.18-3.06-0.2-6.15,0.02-9.2c0.12-1.79-0.17-2.56-2.11-2.64c-3.33-0.14-6.62-0.36-9.97-0.1
		c-2.35,0.18-2.92,1.07-2.88,3.26C192.21,84.24,192.13,90.47,192.13,96.71z M199.42,133.05c21.14,0,42.28,0,63.43,0
		c0.96,0,1.94,0.06,2.89-0.07c1.66-0.23,3.12-0.81,3.14-2.86c0.02-2.05-1.39-2.66-3.06-2.94c-0.6-0.1-1.22-0.06-1.84-0.06
		c-42.99,0-85.97,0-128.96,0.01c-0.87,0-1.77,0.03-2.6,0.24c-1.42,0.35-2.31,1.25-2.27,2.81c0.04,1.43,0.87,2.31,2.2,2.58
		c1.1,0.23,2.26,0.29,3.39,0.29C156.96,133.06,178.19,133.05,199.42,133.05z M169.32,101.2c0-4.99,0.02-9.99-0.02-14.98
		c-0.01-0.82,0.46-1.94-0.5-2.39c-0.74-0.35-1.42,0.5-2.05,0.94c-11.24,7.92-18.62,18.57-22.41,31.76c-0.5,1.74-0.12,2.35,1.76,2.33
		c6.92-0.08,13.84-0.09,20.76,0.01c2.06,0.03,2.51-0.86,2.48-2.69C169.26,111.19,169.31,106.19,169.32,101.2z M199.98,250.71
		c5.77-9.53,11.47-18.95,17.18-28.38c0.42-0.7,0.5-1.46,0.57-2.26c0.2-2.07-0.21-2.79-2.56-2.03c-9.91,3.17-19.94,3.44-30,0.57
		c-0.88-0.25-1.97-1.05-2.66-0.15c-0.62,0.81-0.34,2.04-0.06,3.05c0.16,0.58,0.53,1.1,0.85,1.62
		C188.83,232.28,194.36,241.41,199.98,250.71z M229.68,83.58c0,11.44,0.03,22.32-0.02,33.19c-0.01,1.92,1.04,2.08,2.53,2.08
		c6.67-0.03,13.34-0.08,20.01,0.02c2.2,0.03,2.48-0.72,1.96-2.66c-2.21-8.11-6.15-15.29-11.6-21.62
		C238.95,90.42,235.01,86.57,229.68,83.58z M123.62,326.91c4.03,0,8.07-0.11,12.09,0.04c2.24,0.08,3.29-0.52,3.03-2.92
		c-0.16-1.47-0.17-2.99,0-4.46c0.3-2.61-0.58-3.54-3.32-3.46c-7.1,0.19-14.2,0.06-21.3,0.06c-6.78,0-6.84,0.07-6.64,6.9
		c0.08,2.88,0.93,3.8,3.78,3.83C115.37,326.94,119.5,326.91,123.62,326.91z M276.31,326.91c3.15,0,6.31,0,9.46,0
		c6.76,0,6.94-0.19,6.76-6.9c-0.08-3.07-0.82-3.8-3.98-3.81c-6.39-0.02-12.79-0.02-19.18-0.02c-8.35-0.01-8.3-0.01-8.11,8.32
		c0.04,1.81,0.61,2.48,2.44,2.44C267.9,326.85,272.1,326.91,276.31,326.91z M169.56,241.5c0.01,4.97,1.7,8.8,5.01,11.87
		c4.01,3.73,12.23,1.88,14.4-3.18c0.34-0.79-0.01-1.36-0.37-1.95c-3.54-5.85-7.11-11.68-10.61-17.54c-0.79-1.32-1.48-1.22-2.73-0.49
		C170.74,232.89,169.9,237.26,169.56,241.5z M230.44,241.92c-0.36-4.64-1.15-9.04-5.7-11.7c-1.17-0.68-1.88-1.02-2.73,0.4
		c-3.49,5.88-7.04,11.73-10.61,17.57c-0.64,1.05-0.68,1.88,0.25,2.79c6.59,6.47,12.25,6.51,17.07-1.97
		C229.95,246.84,230.54,244.46,230.44,241.92z M183.54,97.15c0-6.48,0-12.96,0-19.45c0-1.96-0.13-3.86-2.73-3.92
		c-2.58-0.07-2.87,1.73-2.86,3.75c0.01,12.88,0.05,25.75-0.04,38.63c-0.02,2.35,1.04,2.68,3.03,2.73c2.17,0.05,2.67-0.86,2.64-2.82
		C183.48,109.76,183.54,103.46,183.54,97.15z M146.72,159.13c0-1.66,0.01-3.32,0-4.98c-0.01-1.15-0.41-1.79-1.74-1.64
		c-3.38,0.37-5.95,3.15-5.97,6.56c-0.02,3.42,2.22,5.82,5.75,6.34c1.36,0.2,2.01-0.13,1.98-1.56
		C146.7,162.28,146.73,160.7,146.72,159.13z M251.73,158.86c0.01,0,0.01,0,0.02,0c0,1.74,0,3.49,0,5.23c0,1.15,0.53,1.46,1.66,1.31
		c2.97-0.38,5.62-2.67,6.02-5.36c0.47-3.16-1.09-5.73-4.23-6.98c-2.92-1.17-3.45-0.8-3.47,2.4
		C251.73,156.6,251.73,157.73,251.73,158.86z"/>
</g>
</svg>
