<?xml version="1.0" encoding="utf-8"?>
<!-- Generator: Adobe Illustrator 28.4.1, SVG Export Plug-In . SVG Version: 6.00 Build 0)  -->
<svg version="1.1" id="Layer_1" xmlns="http://www.w3.org/2000/svg" xmlns:xlink="http://www.w3.org/1999/xlink" x="0px" y="0px"
	 viewBox="0 0 400 400" style="enable-background:new 0 0 400 400;" xml:space="preserve">
<style type="text/css">
	.st0{fill:#F1F2F2;}
</style>
<path class="st0" d="M357.03,400H42.97C19.24,400,0,380.76,0,357.03V42.97C0,19.24,19.24,0,42.97,0h314.05
	C380.76,0,400,19.24,400,42.97v314.05C400,380.76,380.76,400,357.03,400z"/>
<g>
	<path d="M170.69,199.95c-3.27-2-6.46-3.86-9.33-6.17c-10.14-8.17-16.95-18.51-20.11-31.15c-0.58-2.33-1.49-3.44-3.97-3.87
		c-5.01-0.86-8.86-5.07-9.61-9.88c-0.8-5.13,1.4-10.46,5.98-12.65c2.74-1.31,3.05-3.24,3.13-5.63c0.21-6.13,1.58-12.03,3.8-17.7
		c6.17-15.79,17.11-27.08,32.55-34.01c1.57-0.7,2.65-1.5,3.24-3.26c1.19-3.53,3.84-5.9,7.16-7.42c9.06-4.15,18.21-4.3,27.34-0.23
		c3.68,1.64,6.58,4.18,7.85,8.18c0.43,1.34,1.35,2.01,2.58,2.57c20.05,9.05,32.12,24.4,36.18,46.03c0.22,1.15,0.42,2.33,0.43,3.5
		c0.03,4.02,1.02,6.98,5.02,9.37c4.11,2.45,5.34,7.16,4.1,12.04c-1.22,4.81-4.27,8.06-9.12,9.04c-2.64,0.53-3.67,1.63-4.35,4.2
		c-4.15,15.74-13.38,27.69-27.45,35.89c-0.62,0.36-1.22,0.73-2.25,1.34c2.66,0.82,4.94,1.51,7.21,2.24
		c14.58,4.72,27.69,12.04,39.18,22.22c2.24,1.98,2.25,1.97,3.1-0.94c4.43-15.21,20.43-24.23,35.44-19.99
		c5.38,1.52,6.42,5.22,2.52,9.21c-4.25,4.34-8.59,8.57-12.85,12.89c-2.52,2.55-0.89,8.24,2.44,9.53c3.49,1.35,6,0.8,8.54-2.13
		c3.43-3.96,7.34-7.51,11.08-11.2c3.94-3.89,7.68-2.79,9.11,2.62c4.82,18.37-8.9,36.34-27.86,36.46c-0.63,0-1.27,0.05-1.9-0.01
		c-1.95-0.2-2.1,0.52-1.37,2.16c4.32,9.84,7.12,20.1,8.41,30.79c0.54,4.48-1.2,6.67-5.8,6.68c-13.68,0.03-27.35,0.01-41.03,0.01
		c-3.53,0-3.53,0-3.4,3.37c0.79,19.7-16.29,34.28-35.53,30.31c-0.71-0.15-1.42-0.32-2.1-0.54c-4.14-1.37-5.17-5.07-2.13-8.22
		c4.34-4.5,8.82-8.85,13.23-13.29c2.86-2.88,1.22-8.56-2.59-9.97c-3.24-1.2-5.47-0.67-7.79,1.96c-3.47,3.93-7.37,7.48-11.08,11.2
		c-1.65,1.65-3.38,3.12-5.96,2.35c-2.58-0.77-3.17-2.99-3.72-5.23c-0.76-3.11-0.98-6.27-0.69-9.44c0.17-1.83-0.2-2.6-2.24-2.55
		c-5.25,0.13-10.51,0.06-15.76,0.03c-1.31-0.01-2.28,0.06-2.19,1.85c0.07,1.51-0.84,2.71-1.91,3.77c-3.09,3.06-6.18,6.11-9.22,9.23
		c-1.94,1.99-4.23,2.76-6.61,1.28c-4.04-2.52-7.62-1.95-11.88-0.11c-3.59,1.55-5.73,3.43-6.89,7.11c-1.3,4.14-2.39,4.63-6.84,4.64
		c-3.99,0.01-7.97-0.07-11.95,0.02c-2.94,0.06-5.03-1.16-5.69-3.99c-1.04-4.42-3.86-6.42-7.97-8.14c-3.81-1.59-6.79-1.78-10.36,0.13
		c-3.57,1.91-4.74,1.49-7.66-1.41c-3.02-3-6-6.04-9.04-9.02c-1.85-1.82-2.41-3.95-1.07-6.15c2.42-3.98,2.23-7.52,0.24-11.86
		c-1.66-3.61-3.47-5.92-7.28-7.06c-3.84-1.15-4.53-2.46-4.54-6.38c-0.02-4.08,0.08-8.15-0.03-12.23c-0.08-2.92,1.04-5.12,3.86-5.79
		c4.53-1.08,6.67-3.91,8.34-8.14c1.45-3.69,1.78-6.62-0.16-10.14c-1.99-3.61-1.5-4.94,1.46-7.92c2.87-2.89,5.8-5.73,8.63-8.66
		c1.96-2.02,4.24-2.69,6.61-1.2c4.03,2.54,7.62,1.96,11.86,0.1c3.55-1.56,5.75-3.39,6.88-7.1c1.24-4.06,2.61-4.78,6.79-4.81
		c3.8-0.03,7.61-0.01,11.41,0c2.25,0.01,4.37,0.38,5.66,2.52c0.57,0.95,1.24,0.87,2.05,0.4c8.51-4.93,17.58-8.52,27.08-11.04
		C170.1,200.47,170.28,200.25,170.69,199.95z M147.5,219.61c4.02,2.61,7.9,4.16,12.15,1.08c0.21-0.15,0.51-0.19,0.75-0.31
		c2.44-1.2,4.51-0.72,6.39,1.21c3.04,3.11,6.09,6.21,9.23,9.2c2.21,2.11,2.83,4.5,1.25,7.07c-2.27,3.68-1.74,6.95-0.21,10.91
		c1.56,4.02,3.6,6.56,7.77,7.56c3.23,0.77,4.4,3.16,4.38,6.33c-0.04,3.98,0.03,7.97-0.02,11.95c-0.04,3.63-0.95,5.31-4.44,6.23
		c-4.24,1.12-6.51,3.55-7.63,7.71c-0.56,2.08-0.53,2.72,1.77,2.7c6.88-0.09,13.76-0.07,20.64,0c1.71,0.02,2.8-0.58,3.84-1.97
		c7.56-10.19,17.63-14.31,30.16-12.06c1.56,0.28,2.55-0.07,3.6-1.12c11.37-11.41,22.76-22.82,34.19-34.18
		c1.22-1.22,1.34-2.04,0.08-3.33c-3.47-3.58-7.01-7.09-10.96-10.13c-26.88-20.68-56.82-26.68-89.65-18.5
		C162.61,212,154.92,215.35,147.5,219.61z M161.72,307.2c2.03-1.33,3.58-3.33,5.36-5.07c1.14-1.11,0.37-2.26-0.19-3.22
		c-2.25-3.82-2.24-7.4,0.38-11.13c1.17-1.66,2.04-3.73,2.39-5.73c0.8-4.58,3.3-7.26,7.76-8.3c0.86-0.2,1.95-0.47,2.13-1.46
		c0.44-2.41,0.51-4.91,0.01-7.28c-0.36-1.7-2.43-1.68-3.8-2.23c-2.24-0.89-4.38-1.75-5.07-4.41c-1.07-4.14-2.71-8.05-4.84-11.76
		c-1.02-1.79-1.02-3.61-0.17-5.46c0.53-1.15,0.96-2.35,1.54-3.47c0.63-1.21,0.56-2.21-0.51-3.14c-0.75-0.65-1.52-1.33-2.1-2.12
		c-1.67-2.28-3.52-2.71-5.99-1.13c-3.02,1.94-6.06,1.84-9.15-0.2c-2.26-1.49-4.81-2.67-7.48-3.14c-4.11-0.72-6.35-3.05-7.38-6.93
		c-0.27-1-0.44-2.42-1.58-2.7c-2.38-0.59-4.89-0.5-7.27-0.09c-1.78,0.31-1.82,2.35-2.25,3.74c-0.99,3.16-2.94,5.01-6.21,5.73
		c-2.92,0.65-5.76,1.74-8.26,3.37c-2.98,1.95-5.82,2.11-8.92,0.39c-1.08-0.6-2.41-1.67-3.5-1.16c-2.31,1.07-3.89,3.2-5.5,5.13
		c-1.08,1.3,0.26,2.61,0.86,3.7c1.81,3.25,1.8,6.24-0.33,9.38c-1.47,2.16-2.59,4.66-3.04,7.22c-0.75,4.21-3.16,6.5-7.14,7.53
		c-0.93,0.24-2.15,0.51-2.38,1.59c-0.53,2.4-0.56,4.91-0.05,7.27c0.39,1.82,2.52,1.89,3.99,2.36c2.78,0.88,4.43,2.57,5.1,5.41
		c0.66,2.83,1.5,5.71,3.15,8.06c2.59,3.68,2.57,7.11,0.33,10.83c-0.48,0.79-1.34,1.94-0.67,2.76c1.54,1.88,3.19,3.76,5.13,5.19
		c1.4,1.03,2.96-0.4,4.21-1.09c3.04-1.66,5.74-1.55,8.62,0.41c2.32,1.58,5,2.67,7.73,3.23c3.92,0.8,6.23,2.96,7.19,6.79
		c0.25,1,0.43,2.4,1.61,2.67c2.39,0.54,4.89,0.52,7.27,0.04c1.77-0.36,1.8-2.35,2.33-3.72c0.92-2.36,1.95-4.45,4.72-5.12
		c3.98-0.96,7.72-2.59,11.25-4.64c1.87-1.09,3.7-1.25,5.67-0.27C158.24,305.78,159.85,306.4,161.72,307.2z M197.19,134.55
		c6.79,0,13.58,0,20.38,0c4.24,0,4.24,0,4.24-4.38c0-6.61-0.02-13.22,0.02-19.83c0.01-1.35,0.08-2.73,0.33-4.05
		c0.45-2.36,2.39-3.83,4.64-3.71c2.28,0.12,4.02,1.75,4.31,4.13c0.11,0.89,0.07,1.81,0.07,2.71c0,7.52,0.04,15.03-0.02,22.55
		c-0.02,1.8,0.47,2.66,2.44,2.61c4.25-0.1,8.51-0.09,12.77,0c1.91,0.04,2.67-0.71,2.47-2.57c-0.21-1.98-0.26-3.98-0.61-5.93
		c-3.02-16.79-12.21-29.1-27.13-37.25c-2.05-1.12-2.72-0.47-2.9,1.56c-0.17,1.89-0.39,3.78-0.64,5.66
		c-0.69,5.2-1.33,10.41-2.15,15.59c-0.43,2.72-2.52,4.31-4.89,4.13c-2.51-0.2-4.12-2.19-4.13-5.14c0-0.63,0.01-1.27,0.09-1.9
		c1.13-8.79,2.24-17.58,3.42-26.37c0.46-3.41-0.18-4.84-3.37-6.16c-5.48-2.26-11.07-2.42-16.71-0.54c-4.46,1.49-5.34,2.8-4.76,7.38
		c1.14,8.88,2.32,17.75,3.49,26.63c0.42,3.14-1.24,5.68-4.01,6.06c-2.45,0.34-4.78-1.58-5.19-4.48c-0.82-5.82-1.62-11.65-2.25-17.49
		c-0.71-6.53-0.7-6.66-6.35-3.16c-15.25,9.46-23.21,23.39-24.86,41.13c-0.2,2.11,0.5,2.93,2.7,2.86c4.07-0.14,8.15-0.14,12.22,0
		c2.2,0.07,2.81-0.81,2.78-2.87c-0.09-6.61-0.04-13.22-0.03-19.83c0-1.63-0.08-3.27,0.11-4.88c0.34-2.83,2.39-4.57,4.92-4.42
		c2.45,0.15,4.14,1.95,4.37,4.7c0.07,0.81,0.03,1.63,0.03,2.44c0,7.25,0.08,14.49-0.04,21.73c-0.04,2.33,0.6,3.2,3.05,3.15
		C183.06,134.45,190.12,134.55,197.19,134.55z M197.61,159.27c-14.66,0-29.32,0-43.98,0c-3.67,0-3.8,0.2-2.71,3.67
		c7.02,22.29,28.61,36.26,52.09,33.7c19.37-2.11,35.56-15.61,41.1-34.27c0.87-2.93,0.76-3.1-2.23-3.1
		C227.11,159.27,212.36,159.27,197.61,159.27z M298.45,212.83c-12.45,1.4-19.85,13.59-15.95,25.44c1.04,3.14,0.39,5.3-1.85,7.53
		c-13.11,13.02-26.18,26.07-39.18,39.19c-2.31,2.33-4.57,3.08-7.77,1.98c-6-2.06-11.85-1.33-17.14,2.19
		c-4.72,3.14-7.82,7.46-8.32,13.39c3.29-2.88,6.33-5.96,9.29-9.11c1.74-1.85,3.73-2.38,6.15-1.7c3.57,1,7.16,1.95,10.75,2.88
		c2.24,0.57,3.61,1.95,4.19,4.16c0.83,3.15,1.49,6.36,2.58,9.42c1.25,3.49,0.39,6.06-2.31,8.44c-2.94,2.58-5.65,5.42-8.6,8.27
		c1.1,0.57,1.61,0.34,2.13,0.21c11.23-2.9,17.46-14.36,13.85-25.76c-0.82-2.6-0.76-4.67,1.26-6.68
		c13.6-13.54,27.17-27.12,40.73-40.72c1.72-1.72,3.58-2.29,5.9-1.43c3.46,1.28,6.99,1.54,10.67,0.97
		c8.16-1.26,15.8-9.04,15.95-16.86c-3.4,3.42-6.59,6.59-9.73,9.81c-1.69,1.73-3.59,2.25-5.93,1.57c-3.48-1.01-6.96-1.98-10.48-2.83
		c-2.48-0.6-3.92-2.07-4.55-4.49c-0.87-3.33-1.67-6.68-2.71-9.95c-0.91-2.86-0.26-5.07,1.91-7.08
		C292.41,218.77,295.4,215.77,298.45,212.83z M197.32,149.84c18.29,0,36.59,0,54.88,0c1,0,2,0.05,2.98-0.08
		c1.59-0.22,2.73-1.06,2.8-2.79c0.07-1.82-0.97-2.87-2.68-3.22c-0.79-0.16-1.62-0.1-2.44-0.1c-36.86,0-73.72,0-110.58,0
		c-0.81,0-1.64-0.06-2.44,0.07c-1.69,0.28-2.98,1.23-2.97,3c0.01,1.86,1.17,2.98,3.12,3.08c0.9,0.05,1.81,0.03,2.72,0.03
		C160.91,149.84,179.11,149.84,197.32,149.84z M262.86,291.21c10.89,0,21.54-0.01,32.2,0.01c1.65,0,1.94-0.69,1.67-2.2
		c-1.37-7.68-3.7-15.06-6.75-22.24c-0.85-2-1.37-2.27-3-0.6c-7.52,7.68-15.18,15.23-22.76,22.85
		C263.68,289.58,262.84,289.95,262.86,291.21z"/>
	<path d="M98.61,268.36c0.4-17.46,14.28-30.85,31.55-30.47c16.76,0.38,30.17,14.66,29.78,31.73c-0.37,16.23-14.59,29.94-30.77,29.67
		C112.04,299.01,98.23,285.03,98.61,268.36z M150.51,268.64c0.02-12.04-9.25-21.31-21.29-21.3c-11.86,0.01-21.41,9.55-21.39,21.36
		c0.02,11.57,9.74,21.29,21.31,21.32C140.96,290.04,150.49,280.5,150.51,268.64z"/>
</g>
</svg>
