<svg width="203" height="37" viewBox="0 0 203 37" fill="none" xmlns="http://www.w3.org/2000/svg">
<path d="M13.5895 32.526L13.5 32.009H12.7615V33.4026H14.2385L14.3951 32.5934H14.8651V33.8072H11.5754V33.4925L12.0901 33.3802V30.3457L11.5754 30.2333V29.9186H14.7532V31.065H14.3056L14.149 30.3232H12.7615V31.6269H13.5L13.5895 31.1099H14.0147V32.526H13.5895Z" fill="white"/>
<path d="M15.9616 33.4925L15.8945 33.8072H15.4246V32.5035H15.9169C15.9616 33.2228 16.2749 33.4925 16.7896 33.4925C17.1925 33.4925 17.461 33.3352 17.461 32.9531C17.461 32.5035 17.0582 32.3462 16.4987 32.0989C15.8274 31.8292 15.4469 31.5819 15.4469 30.9526C15.4469 30.2558 15.9169 29.8512 16.633 29.8512C16.9911 29.8512 17.282 29.9411 17.5058 30.1434L17.5505 29.8961H18.0205V31.1998H17.5505C17.5505 30.5255 17.3044 30.2108 16.7896 30.2108C16.3868 30.2108 16.1854 30.4131 16.1854 30.7952C16.1854 31.1773 16.3868 31.2672 16.9911 31.537C17.8862 31.9416 18.1995 32.2338 18.1995 32.7508C18.1995 33.47 17.6177 33.8297 16.8792 33.8297C16.454 33.8746 16.1854 33.7623 15.9616 33.4925Z" fill="white"/>
<path d="M19.7883 32.3237V33.3802L20.303 33.4925V33.8072H18.647V33.4925L19.0946 33.3802V30.3457L18.647 30.2333V29.9186H20.594C20.9296 29.9186 21.2206 30.0085 21.3996 30.1883C21.6458 30.4131 21.8024 30.7278 21.8024 31.0874C21.8024 31.4471 21.6234 31.8517 21.3772 32.054C21.1982 32.2563 20.9073 32.3237 20.5716 32.3237H19.7883ZM20.2807 31.9191C20.4821 31.9191 20.6611 31.8517 20.773 31.7618C20.9073 31.6269 21.0415 31.4021 21.0415 31.1549C21.0415 30.9076 20.9296 30.6828 20.773 30.5255C20.6611 30.4131 20.4597 30.3232 20.2583 30.3232H19.766V31.9416H20.2807V31.9191Z" fill="white"/>
<path d="M24.085 32.526L23.9955 32.009H23.257V33.4026H24.734L24.8907 32.5934H25.3606V33.8072H22.0486V33.4925L22.5633 33.3802V30.3457L22.0486 30.2333V29.9186H25.2263V31.065H24.7788L24.6221 30.3232H23.2346V31.6269H23.9731L24.0627 31.1099H24.4878V32.526H24.085Z" fill="white"/>
<path d="M26.9271 30.5704C26.7257 30.8402 26.5914 31.2897 26.5914 31.7842C26.5914 32.2787 26.7033 32.7507 26.9047 33.0654C27.0614 33.3127 27.3299 33.4251 27.688 33.4251C28.2922 33.4251 28.6503 33.1104 28.7398 32.5035H29.1873C29.0083 33.4026 28.4712 33.8521 27.5537 33.8521C27.0614 33.8521 26.6586 33.7173 26.3676 33.4251C26.0096 33.0879 25.8306 32.5485 25.8306 31.8966C25.8306 31.1773 26.0767 30.548 26.5019 30.2108C26.7705 29.986 27.1285 29.8736 27.5761 29.8736C28.0237 29.8736 28.2474 29.9635 28.5384 30.2782L28.6503 29.9411H29.0978V31.2223H28.6055C28.4936 30.5929 28.1356 30.2782 27.6208 30.2782C27.3523 30.2333 27.0838 30.3681 26.9271 30.5704Z" fill="white"/>
<path d="M30.7538 33.3802L31.2685 33.4925V33.8072H29.5677V33.4925L30.0825 33.3802V30.3457L29.5677 30.2333V29.9186H31.2685V30.2333L30.7538 30.3457V33.3802Z" fill="white"/>
<path d="M33.9316 32.5485H32.6113L32.3427 33.3801L32.7903 33.4925V33.8072H31.3804V33.4925L31.828 33.3801L33.0812 29.8736H33.7526L35.0058 33.3801L35.4309 33.4925V33.8072H33.7973V33.4925L34.2449 33.3801L33.9316 32.5485ZM32.7679 32.1439H33.8197L33.3274 30.5704H33.305L32.7679 32.1439Z" fill="white"/>
<path d="M36.7513 33.4026H38.0492L38.2283 32.4586H38.6758V33.8072H35.5428V33.4925L36.0576 33.3802V30.3457L35.5428 30.2333V29.9186H37.3108V30.2333L36.7513 30.3457V33.4026Z" fill="white"/>
<path d="M40.2199 33.3802L40.7346 33.4925V33.8072H39.0339V33.4925L39.5486 33.3802V30.3457L39.0339 30.2333V29.9186H40.7346V30.2333L40.2199 30.3457V33.3802Z" fill="white"/>
<path d="M41.7417 33.4925L41.6745 33.8072H41.2046V32.5035H41.6969C41.7417 33.2228 42.055 33.4925 42.5697 33.4925C42.9725 33.4925 43.241 33.3352 43.241 32.9531C43.241 32.5035 42.8382 32.3462 42.2788 32.0989C41.6074 31.8292 41.227 31.5819 41.227 30.9526C41.227 30.2558 41.6969 29.8512 42.413 29.8512C42.7711 29.8512 43.062 29.9411 43.2858 30.1434L43.3305 29.8961H43.8005V31.1998H43.3305C43.3305 30.5255 43.0844 30.2108 42.5697 30.2108C42.1669 30.2108 41.9655 30.4131 41.9655 30.7952C41.9655 31.1773 42.1669 31.2672 42.7711 31.537C43.6662 31.9416 43.9795 32.2338 43.9795 32.7508C43.9795 33.47 43.3977 33.8297 42.6592 33.8297C42.234 33.8746 41.9655 33.7623 41.7417 33.4925Z" fill="white"/>
<path d="M47.6944 29.9186V31.1324H47.3587L47.1797 30.3232H46.3517V33.3577L46.9111 33.4925V33.8072H45.0761V33.4925L45.6355 33.3577V30.3232H44.8075L44.6509 31.1324H44.3376V29.9186H47.6944Z" fill="white"/>
<path d="M50.0217 32.5485H48.7014L48.4329 33.3801L48.8804 33.4925V33.8072H47.4706V33.4925L47.9182 33.3801L49.1713 29.8736H49.8427L51.0959 33.3801L51.5211 33.4925V33.8072H49.8875V33.4925L50.335 33.3801L50.0217 32.5485ZM48.858 32.1439H49.9098L49.4175 30.5704H49.3951L48.858 32.1439Z" fill="white"/>
<path d="M52.282 33.4925L52.2148 33.8072H51.7449V32.5035H52.2372C52.282 33.2228 52.5953 33.4925 53.11 33.4925C53.5128 33.4925 53.7813 33.3352 53.7813 32.9531C53.7813 32.5035 53.3785 32.3462 52.819 32.0989C52.1477 31.8292 51.7672 31.5819 51.7672 30.9526C51.7672 30.2558 52.2372 29.8512 52.9533 29.8512C53.3114 29.8512 53.6023 29.9411 53.8261 30.1434L53.8708 29.8961H54.3408V31.1998H53.8708C53.8708 30.5255 53.6247 30.2108 53.11 30.2108C52.7071 30.2108 52.5057 30.4131 52.5057 30.7952C52.5057 31.1773 52.7071 31.2672 53.3114 31.537C54.2065 31.9416 54.5198 32.2338 54.5198 32.7508C54.5198 33.47 53.938 33.8297 53.1995 33.8297C52.7743 33.8746 52.5057 33.7623 52.282 33.4925Z" fill="white"/>
<path d="M58.2346 32.526L58.1451 32.009H57.4066V33.4026H58.8836L59.0403 32.5934H59.5102V33.8072H56.1982V33.4925L56.7129 33.3802V30.3457L56.1982 30.2333V29.9186H59.3759V31.065H58.9284L58.7717 30.3232H57.3842V31.6269H58.1227L58.2122 31.1099H58.6374V32.526H58.2346Z" fill="white"/>
<path d="M60.4277 30.3457L59.9801 30.2333V29.9186H61.211L63.0012 32.7733V30.3457L62.5537 30.2333V29.9186H63.9635V30.2333L63.516 30.3457V33.8072H62.9117L60.92 30.7053V33.3802L61.3676 33.4925V33.8072H59.9578V33.4925L60.4053 33.3802V30.3457H60.4277Z" fill="white"/>
<path d="M66.7385 30.5704C66.537 30.8402 66.4028 31.2897 66.4028 31.7842C66.4028 32.2787 66.5147 32.7507 66.7161 33.0654C66.8727 33.3127 67.1413 33.4251 67.4993 33.4251C68.1035 33.4251 68.4616 33.1104 68.5511 32.5035H68.9987C68.8197 33.4026 68.2826 33.8521 67.365 33.8521C66.8727 33.8521 66.4699 33.7173 66.179 33.4251C65.8209 33.0879 65.6419 32.5485 65.6419 31.8966C65.6419 31.1773 65.8881 30.548 66.3133 30.2108C66.5818 29.986 66.9399 29.8736 67.3874 29.8736C67.835 29.8736 68.0588 29.9635 68.3497 30.2782L68.4616 29.9411H68.9092V31.2223H68.4168C68.3049 30.5929 67.9469 30.2782 67.4322 30.2782C67.1636 30.2333 66.8951 30.3681 66.7385 30.5704Z" fill="white"/>
<path d="M72.5569 33.4026C72.2436 33.7173 71.8408 33.8746 71.2365 33.8746C70.6323 33.8746 70.2071 33.7173 69.9162 33.4251C69.6029 33.1104 69.4015 32.5485 69.4015 31.9191C69.4015 31.2897 69.6029 30.7053 69.9386 30.3457C70.2295 30.031 70.6547 29.8736 71.2589 29.8736C71.8407 29.8736 72.2659 30.0085 72.5792 30.3232C72.9597 30.7053 73.0939 31.2672 73.0939 31.8292C73.0939 32.4136 72.9149 32.998 72.5569 33.4026ZM70.4533 33.0879C70.6323 33.3576 70.8785 33.4925 71.2589 33.4925C71.5946 33.4925 71.8408 33.3801 72.0198 33.1329C72.1988 32.8856 72.3107 32.481 72.3107 31.8966C72.3107 31.3347 72.1988 30.9076 72.0198 30.6379C71.8408 30.3681 71.5498 30.2333 71.2142 30.2333C70.8785 30.2333 70.6323 30.3681 70.4757 30.5929C70.2742 30.8626 70.1847 31.2672 70.1847 31.8067C70.1624 32.3686 70.2743 32.7957 70.4533 33.0879Z" fill="white"/>
<path d="M73.922 30.3457L73.4744 30.2333V29.9186H74.7052L76.4955 32.7733V30.3457L76.0479 30.2333V29.9186H77.4578V30.2333L77.0102 30.3457V33.8072H76.406L74.4143 30.7053V33.3802L74.8619 33.4925V33.8072H73.452V33.4925L73.8996 33.3802V30.3457H73.922Z" fill="white"/>
<path d="M78.4424 33.4925L78.3753 33.8072H77.9053V32.5035H78.3977C78.4424 33.2228 78.7557 33.4925 79.2704 33.4925C79.6732 33.4925 79.9418 33.3352 79.9418 32.9531C79.9418 32.5035 79.539 32.3462 78.9795 32.0989C78.3081 31.8292 77.9277 31.5819 77.9277 30.9526C77.9277 30.2558 78.3977 29.8512 79.1138 29.8512C79.4718 29.8512 79.7627 29.9411 79.9865 30.1434L80.0313 29.8961H80.5012V31.1998H80.0313C80.0313 30.5255 79.7851 30.2108 79.2704 30.2108C78.8676 30.2108 78.6662 30.4131 78.6662 30.7952C78.6662 31.1773 78.8676 31.2672 79.4718 31.537C80.367 31.9416 80.6803 32.2338 80.6803 32.7508C80.6803 33.47 80.0984 33.8297 79.3599 33.8297C78.9347 33.8746 78.6662 33.7623 78.4424 33.4925Z" fill="white"/>
<path d="M84.3951 29.9186V31.1324H84.0594L83.8804 30.3232H83.0748V33.3577L83.6342 33.4925V33.8072H81.7992V33.4925L82.3587 33.3577V30.3232H81.5307L81.374 31.1324H81.0383V29.9186H84.3951Z" fill="white"/>
<path d="M87.0358 32.009C87.0805 32.054 87.1701 32.1439 87.2372 32.2563L87.9085 33.3802L88.3785 33.4925V33.8072H87.1029V33.4925L86.4092 32.0989H85.8945V33.3802L86.4092 33.4925V33.8072H84.7532V33.4925L85.2007 33.3802V30.3457L84.7532 30.2333V29.9186H86.7672C87.1029 29.9186 87.3715 29.986 87.5729 30.1209C87.8414 30.3007 87.9981 30.6379 87.9981 30.9301C87.9981 31.2223 87.8414 31.537 87.5952 31.7393C87.4386 31.8517 87.3043 31.9416 87.0358 32.009ZM86.4987 31.7168C86.7001 31.7168 86.8568 31.6494 86.991 31.5595C87.1253 31.4246 87.2148 31.2223 87.2148 30.9751C87.2148 30.7503 87.1253 30.5705 86.9686 30.4581C86.8344 30.3682 86.7001 30.3232 86.4539 30.3232H85.8721V31.7168H86.4987Z" fill="white"/>
<path d="M91.4444 30.3457L90.9968 30.2333V29.9186H92.4066V30.2333L91.9591 30.3457V32.5035C91.9591 33.4026 91.422 33.8747 90.3926 33.8747C89.4527 33.8747 88.9156 33.3801 88.9156 32.5035V30.3682L88.468 30.2558V29.9411H90.0793V30.2558L89.6317 30.3682V32.3462C89.6317 33.1329 89.9226 33.515 90.5268 33.515C91.1982 33.515 91.4891 33.1779 91.4891 32.3462V30.3457H91.4444Z" fill="white"/>
<path d="M93.8389 30.5704C93.6375 30.8402 93.5032 31.2897 93.5032 31.7842C93.5032 32.2787 93.6151 32.7507 93.8165 33.0654C93.9731 33.3127 94.2417 33.4251 94.5997 33.4251C95.204 33.4251 95.562 33.1104 95.6515 32.5035H96.0991C95.9201 33.4026 95.383 33.8521 94.4655 33.8521C93.9731 33.8521 93.5703 33.7173 93.2794 33.4251C92.9213 33.0879 92.7423 32.5485 92.7423 31.8966C92.7423 31.1773 92.9885 30.548 93.4137 30.2108C93.6822 29.986 94.0403 29.8736 94.4878 29.8736C94.9354 29.8736 95.1592 29.9635 95.4501 30.2782L95.562 29.9411H96.0096V31.2223H95.5173C95.4054 30.5929 95.0473 30.2782 94.5326 30.2782C94.2417 30.2333 93.9731 30.3681 93.8389 30.5704Z" fill="white"/>
<path d="M97.5761 30.5704C97.3747 30.8402 97.2404 31.2897 97.2404 31.7842C97.2404 32.2787 97.3523 32.7507 97.5537 33.0654C97.7103 33.3127 97.9789 33.4251 98.3369 33.4251C98.9412 33.4251 99.2992 33.1104 99.3887 32.5035H99.8363C99.6573 33.4026 99.1202 33.8521 98.2027 33.8521C97.7103 33.8521 97.3075 33.7173 97.0166 33.4251C96.6585 33.0879 96.4795 32.5485 96.4795 31.8966C96.4795 31.1773 96.7257 30.548 97.1509 30.2108C97.4194 29.986 97.7775 29.8736 98.225 29.8736C98.6726 29.8736 98.8964 29.9635 99.1873 30.2782L99.2992 29.9411H99.7468V31.2223H99.2545C99.1426 30.5929 98.7845 30.2782 98.2698 30.2782C98.0013 30.2333 97.7327 30.3681 97.5761 30.5704Z" fill="white"/>
<path d="M101.38 33.3802L101.895 33.4925V33.8072H100.194V33.4925L100.709 33.3802V30.3457L100.194 30.2333V29.9186H101.895V30.2333L101.38 30.3457V33.3802Z" fill="white"/>
<path d="M105.409 33.4026C105.095 33.7173 104.692 33.8746 104.088 33.8746C103.484 33.8746 103.059 33.7173 102.768 33.4251C102.455 33.1104 102.253 32.5485 102.253 31.9191C102.253 31.2897 102.455 30.7053 102.79 30.3457C103.081 30.031 103.506 29.8736 104.111 29.8736C104.692 29.8736 105.118 30.0085 105.431 30.3232C105.811 30.7053 105.946 31.2672 105.946 31.8292C105.946 32.4136 105.789 32.998 105.409 33.4026ZM103.327 33.0879C103.506 33.3576 103.753 33.4925 104.133 33.4925C104.469 33.4925 104.715 33.3801 104.894 33.1329C105.073 32.8856 105.185 32.481 105.185 31.8966C105.185 31.3347 105.073 30.9076 104.894 30.6379C104.715 30.3681 104.424 30.2333 104.088 30.2333C103.753 30.2333 103.506 30.3681 103.35 30.5929C103.148 30.8626 103.059 31.2672 103.059 31.8067C103.036 32.3686 103.148 32.7957 103.327 33.0879Z" fill="white"/>
<path d="M106.796 30.3457L106.348 30.2333V29.9186H107.579L109.37 32.7733V30.3457L108.922 30.2333V29.9186H110.332V30.2333L109.884 30.3457V33.8072H109.28L107.288 30.7053V33.3802L107.736 33.4925V33.8072H106.326V33.4925L106.774 33.3802V30.3457H106.796Z" fill="white"/>
<path d="M112.749 32.526L112.659 32.009H111.921V33.4026H113.398L113.554 32.5934H114.024V33.8072H110.712V33.4925L111.227 33.3802V30.3457L110.712 30.2333V29.9186H113.89V31.065H113.442L113.286 30.3232H111.921V31.6269H112.659L112.749 31.1099H113.174V32.526H112.749Z" fill="white"/>
<path d="M115.098 33.4925L115.031 33.8072H114.561V32.5035H115.054C115.098 33.2228 115.412 33.4925 115.926 33.4925C116.329 33.4925 116.598 33.3352 116.598 32.9531C116.598 32.5035 116.195 32.3462 115.636 32.0989C114.964 31.8292 114.584 31.5819 114.584 30.9526C114.584 30.2558 115.054 29.8512 115.77 29.8512C116.128 29.8512 116.419 29.9411 116.643 30.1434L116.687 29.8961H117.157V31.1998H116.687C116.687 30.5255 116.441 30.2108 115.926 30.2108C115.524 30.2108 115.322 30.4131 115.322 30.7952C115.322 31.1773 115.524 31.2672 116.128 31.537C117.023 31.9416 117.336 32.2338 117.336 32.7508C117.336 33.47 116.754 33.8297 116.016 33.8297C115.591 33.8746 115.322 33.7623 115.098 33.4925Z" fill="white"/>
<path d="M166.48 0.270733C168.74 0.450553 171.38 1.37213 173.685 3.19281C177.445 6.18232 179.951 10.1159 182.077 14.3641C182.682 15.5554 183.219 16.7692 183.778 17.983C184.069 18.5899 184.628 18.6124 185.143 18.6798C185.994 18.7922 186.866 18.8596 187.717 18.9271C189.91 19.1069 192.036 19.6239 194.229 19.9386C196.153 20.2083 198.078 20.5005 200.003 20.7927C200.562 20.8826 201.144 20.9276 201.591 21.3546C202.397 22.1189 202.218 23.3102 201.121 23.8721C199.354 24.7712 197.742 25.9176 196.265 27.2438C193.647 29.5814 191.633 32.3686 190.223 35.5829C189.887 36.3472 189.373 36.7293 188.612 36.7742C187.806 36.8192 187.359 36.3247 187.023 35.5829C185.703 32.5035 184.785 29.2892 183.599 26.1873C183.062 24.7937 182.614 23.3327 181.876 22.0065C181.63 21.5794 181.272 21.512 180.891 21.467C179.146 21.3097 177.4 21.1524 175.655 21.04C172.857 20.8826 170.06 20.523 167.263 20.478C164.958 20.4331 162.675 20.478 160.393 20.6578C157.573 20.8826 154.753 21.1524 151.911 21.3097C149.696 21.4446 149.27 21.7592 148.465 23.8497C146.965 27.7383 145.757 31.7617 144.146 35.6054C143.832 36.3472 143.363 36.7967 142.557 36.7967C141.796 36.7967 141.348 36.3921 140.946 35.538C139.491 32.3462 137.522 29.5365 134.836 27.2438C133.315 25.9625 131.703 24.8387 129.958 23.8946C129.175 23.4675 128.973 22.973 129.152 22.1189C129.309 21.3771 129.779 21.0624 130.495 20.9501C134.993 20.2757 139.491 19.6014 144.011 18.9496C144.884 18.8147 145.779 18.8147 146.652 18.6349C147.033 18.5674 147.256 18.3651 147.413 18.028C148.666 15.0834 150.098 12.2288 151.866 9.57643C154.104 6.2048 156.678 3.17033 160.504 1.507C162.16 0.652851 163.951 0.225778 166.48 0.270733ZM163.414 10.4306C163.414 12.4086 163.436 14.3866 163.414 16.3646C163.414 16.9266 163.615 17.1738 164.197 17.1514C165.092 17.1289 165.965 17.1289 166.86 17.1514C167.419 17.1514 167.71 16.9266 167.71 16.3197C167.733 12.4311 167.598 8.54246 167.8 4.67633C167.822 4.06943 167.554 3.7997 166.994 3.77723C166.054 3.75475 165.114 3.75475 164.197 3.75475C163.615 3.75475 163.414 4.06943 163.414 4.65385C163.414 6.58692 163.414 8.51998 163.414 10.4306ZM169.501 10.6778C169.501 11.2622 169.501 11.8691 169.501 12.4536C169.501 13.7572 169.501 15.0834 169.523 16.3871C169.523 16.9041 169.702 17.2188 170.306 17.1963C170.843 17.1738 171.38 17.2413 171.917 17.2862C172.902 17.3761 172.969 17.3087 172.992 16.3197C173.014 13.4426 172.902 10.5879 173.081 7.71079C173.104 7.28372 172.992 6.96903 172.656 6.67683C171.873 6.0025 171.045 5.39561 170.105 4.9011C169.59 4.63137 169.478 4.72128 169.478 5.26074C169.501 7.05894 169.501 8.85715 169.501 10.6778ZM161.623 10.8801C161.601 10.8801 161.601 10.8801 161.623 10.8801C161.601 9.01449 161.601 7.17133 161.623 5.3057C161.623 4.69881 161.444 4.65385 160.93 4.9011C159.967 5.37313 159.184 6.06993 158.356 6.76674C158.155 6.94656 158.088 7.17133 158.088 7.44106C158.088 10.5205 158.088 13.5774 158.088 16.6568C158.088 17.1289 158.267 17.3536 158.737 17.3312C159.43 17.2862 160.124 17.2413 160.795 17.2413C161.4 17.2413 161.623 17.0165 161.623 16.4096C161.601 14.544 161.623 12.7233 161.623 10.8801ZM174.827 13.3527C174.827 14.499 174.804 15.6229 174.827 16.7692C174.827 17.1963 174.894 17.5559 175.476 17.6459C176.818 17.8482 178.183 17.8257 179.526 17.9381C179.974 17.983 180.041 17.7582 179.862 17.3986C179.66 16.9715 179.459 16.5445 179.258 16.1399C178.183 13.8696 176.93 11.7343 175.431 9.73377C175.319 9.57643 175.207 9.32917 174.983 9.41909C174.782 9.509 174.827 9.75625 174.827 9.95855C174.827 11.0599 174.827 12.2063 174.827 13.3527ZM156.275 9.21679C156.118 9.3067 156.051 9.32917 156.006 9.37413C155.872 9.509 155.715 9.64386 155.604 9.8012C153.88 12.1389 152.515 14.6788 151.285 17.3087C151.061 17.8032 151.262 17.9381 151.732 17.9156C153.03 17.8257 154.35 17.8257 155.626 17.6234C156.141 17.5335 156.297 17.3087 156.297 16.8367C156.297 15.6004 156.297 14.3641 156.297 13.1279C156.275 11.8467 156.275 10.5654 156.275 9.21679ZM195.863 23.1529C194.005 22.6808 192.26 22.7707 190.514 22.7483C190.134 22.7483 189.91 22.8831 189.91 23.3102C189.91 25.0634 189.91 26.8167 189.91 28.5699C189.91 28.7048 189.887 28.9071 190.066 28.9296C190.223 28.9521 190.335 28.7947 190.425 28.6823C190.76 28.2777 191.051 27.8507 191.387 27.4685C192.707 25.9176 194.251 24.5689 195.863 23.1529ZM140.968 28.9521C141.035 28.9296 141.102 28.8846 141.169 28.8621C141.169 26.9965 141.169 25.1084 141.169 23.2428C141.169 22.8382 140.923 22.7483 140.588 22.7707C139.76 22.7707 138.909 22.7707 138.081 22.7932C137.119 22.7932 136.201 22.9281 135.15 23.2203C137.387 24.8836 139.29 26.8167 140.968 28.9521ZM143.094 28.7947C143.877 26.7268 144.683 24.6364 145.466 22.5684C145.578 22.2762 145.6 22.0964 145.198 22.1189C144.638 22.1638 144.079 22.2313 143.497 22.2537C143.072 22.2762 142.87 22.5235 142.87 22.9281C142.87 24.8836 142.758 26.8392 143.094 28.7947ZM188.231 28.7947C188.231 26.8392 188.231 24.8836 188.231 22.9506C188.231 22.4785 188.008 22.2762 187.56 22.2537C187.045 22.2088 186.531 22.2088 186.016 22.1189C185.546 22.029 185.479 22.1863 185.636 22.5684C185.859 23.1079 186.15 23.6249 186.352 24.1868C186.911 25.7153 187.426 27.2887 188.231 28.7947Z" fill="white"/>
<path d="M123.334 36.7742C122.774 36.7742 122.304 36.3022 122.304 35.7403V1.19232C122.304 0.630384 122.774 0.158356 123.334 0.158356C123.893 0.158356 124.363 0.630384 124.363 1.19232V35.7178C124.363 36.3022 123.893 36.7742 123.334 36.7742Z" fill="white"/>
<path d="M0.475674 3.82221C0.542809 3.75478 0.632323 3.7323 0.788973 3.7323H13.9699C14.1937 3.7323 14.3056 3.84469 14.3056 4.09194L14.2832 5.89014C14.2832 6.18235 14.1489 6.31721 13.858 6.31721H4.23526C3.94434 6.31721 3.81007 6.4296 3.81007 6.67686V12.521C3.81007 12.7683 3.92197 12.8807 4.16813 12.8807H11.0607C11.3069 12.8807 11.4188 12.993 11.4188 13.2178V15.1284C11.4188 15.3307 11.3069 15.4431 11.0607 15.4431H4.12337C3.89959 15.4431 3.78769 15.5555 3.78769 15.7578V21.8941C3.78769 22.0065 3.81007 22.0964 3.85483 22.1414C3.89959 22.1863 3.96672 22.2088 4.05624 22.2088H14.2161C14.3727 22.2088 14.4622 22.2313 14.5294 22.2763C14.5965 22.3212 14.6189 22.4111 14.6189 22.546V24.4116C14.6189 24.6589 14.4846 24.7713 14.2161 24.7713H0.878487C0.699459 24.7713 0.565188 24.7488 0.498052 24.6814C0.430917 24.6139 0.408538 24.5015 0.408538 24.3217V4.1369C0.38616 3.97955 0.408538 3.88964 0.475674 3.82221Z" fill="white"/>
<path d="M32.186 14.6339C30.8209 15.6903 28.9859 16.2298 26.7033 16.2298H22.0709C21.8919 16.2298 21.78 16.3197 21.78 16.522V24.3217C21.78 24.6364 21.601 24.7937 21.2653 24.7937H18.8036C18.5127 24.7937 18.3561 24.6589 18.3561 24.3667V4.13688C18.3561 3.97954 18.3785 3.86715 18.4456 3.79972C18.5127 3.73229 18.6022 3.70981 18.7589 3.70981H26.3005C28.6726 3.70981 30.5971 4.22679 32.0517 5.28324C33.5063 6.33968 34.2224 7.91311 34.2224 9.98104C34.2448 12.0265 33.5735 13.555 32.186 14.6339ZM26.1214 6.24977H22.2276C22.0709 6.24977 21.959 6.27225 21.8919 6.33968C21.8247 6.40711 21.8024 6.49702 21.8024 6.65436V13.2852C21.8024 13.5774 21.9143 13.7123 22.1157 13.7123H26.3228C27.7103 13.7123 28.7845 13.3976 29.5677 12.7683C30.351 12.1389 30.7314 11.1948 30.7314 9.93608C30.7314 7.46356 29.2097 6.24977 26.1214 6.24977Z" fill="white"/>
<path d="M50.0217 4.24927C51.163 4.78873 52.1253 5.50801 52.8862 6.42959C53.647 7.32869 54.0946 8.34018 54.2736 9.4191C54.296 9.48653 54.296 9.59892 54.296 9.71131C54.296 9.80122 54.2736 9.86865 54.2289 9.89113C54.1841 9.91361 54.117 9.93608 54.0051 9.95856L51.3644 10.1384H51.2749C51.163 10.1384 51.0735 10.026 51.0287 9.8237C50.7602 8.65486 50.2231 7.71081 49.4399 7.01401C48.6342 6.3172 47.6496 5.95756 46.4635 5.95756C44.6285 5.95756 43.241 6.65437 42.3011 8.02549C41.3388 9.39662 40.8689 11.487 40.8689 14.2518C40.8689 17.0165 41.3388 19.0844 42.3011 20.4556C43.2634 21.8267 44.6732 22.501 46.5978 22.501C47.8734 22.501 48.9475 22.1863 49.7979 21.557C50.6483 20.9276 51.342 19.9386 51.8791 18.545C51.9015 18.4101 52.0358 18.3652 52.3043 18.4101L54.3184 18.8821C54.4974 18.9271 54.5645 19.0844 54.5198 19.3542C54.2512 20.2533 53.7813 21.1524 53.0876 22.029C52.3938 22.9056 51.4987 23.6249 50.3574 24.2093C49.2161 24.7937 47.9181 25.0859 46.4635 25.0859C44.5837 25.0859 42.9501 24.6364 41.5626 23.7598C40.1752 22.8607 39.1234 21.6019 38.3849 19.9611C37.6464 18.3202 37.2883 16.4096 37.2883 14.2068C37.2883 11.9815 37.6464 10.0709 38.3849 8.45257C39.101 6.83419 40.1528 5.59792 41.5179 4.7213C42.883 3.86715 44.4942 3.4176 46.374 3.4176C47.6496 3.44008 48.8804 3.70981 50.0217 4.24927Z" fill="white"/>
<path d="M64.344 3.82221C64.4111 3.75478 64.5006 3.7323 64.6573 3.7323H77.8382C78.062 3.7323 78.1739 3.84469 78.1739 4.09194L78.1515 5.89014C78.1515 6.18235 78.0172 6.31721 77.7263 6.31721H68.1036C67.8126 6.31721 67.6784 6.4296 67.6784 6.67686V12.521C67.6784 12.7683 67.7903 12.8807 68.0364 12.8807H74.929C75.1752 12.8807 75.2871 12.993 75.2871 13.2178V15.1284C75.2871 15.3307 75.1752 15.4431 74.929 15.4431H67.9917C67.7679 15.4431 67.656 15.5555 67.656 15.7578V21.8941C67.656 22.0065 67.6784 22.0964 67.7231 22.1414C67.7679 22.1863 67.835 22.2088 67.9245 22.2088H78.1291C78.2858 22.2088 78.3753 22.2313 78.4424 22.2763C78.5096 22.3212 78.5319 22.4111 78.5319 22.546V24.4116C78.5319 24.6589 78.3977 24.7713 78.1291 24.7713H64.7468C64.5677 24.7713 64.4335 24.7488 64.3663 24.6814C64.2992 24.6139 64.2768 24.5015 64.2768 24.3217V4.1369C64.2544 3.97955 64.2992 3.88964 64.344 3.82221Z" fill="white"/>
<path d="M80.9265 24.4566L80.9936 24.2093L88.1995 4.15936C88.2666 3.97954 88.3337 3.86715 88.4233 3.79972C88.5128 3.73229 88.647 3.70981 88.8261 3.70981H91.6905C92.0486 3.70981 92.2947 3.86715 92.4066 4.18184L99.5678 24.2093C99.5901 24.2543 99.5901 24.3217 99.5901 24.4116C99.5901 24.6589 99.4782 24.7712 99.2768 24.7712H96.5914C96.3453 24.7712 96.1886 24.6589 96.1215 24.4341L94.3088 19.3766C94.264 19.2867 94.2417 19.2193 94.1969 19.1743C94.1522 19.1294 94.085 19.1069 93.9731 19.1069H86.1406C85.9616 19.1069 85.8497 19.1743 85.805 19.3317L83.9699 24.479C83.9028 24.6589 83.7461 24.7712 83.5 24.7712H81.2621C81.0383 24.7937 80.9265 24.6813 80.9265 24.4566ZM93.0556 16.477C93.1899 16.477 93.257 16.4546 93.3018 16.3871C93.3241 16.3197 93.3242 16.2298 93.2794 16.0949L90.2135 7.57594C90.1464 7.44108 90.1016 7.37364 90.0121 7.37364C89.945 7.37364 89.8779 7.44108 89.8107 7.59842L86.6777 16.1174L86.6554 16.2972C86.6554 16.4321 86.7449 16.4995 86.9015 16.4995H93.0556V16.477Z" fill="white"/>
<path d="M112.771 6.49703C112.033 6.13739 111.137 5.95757 110.086 5.95757C108.743 5.95757 107.714 6.2273 106.953 6.78923C106.214 7.35117 105.834 8.11541 105.834 9.10442C105.834 10.4081 106.751 11.3746 108.609 12.004L112.861 13.3302C116.061 14.3417 117.672 16.2298 117.672 19.017C117.672 20.8826 116.978 22.3662 115.591 23.4451C114.203 24.524 112.301 25.0635 109.884 25.0635C108.094 25.0635 106.505 24.7488 105.14 24.1194C103.753 23.49 102.701 22.6134 101.94 21.4446C101.873 21.2872 101.828 21.1973 101.828 21.1524C101.828 20.995 101.917 20.8602 102.119 20.7253L103.506 19.7588C103.685 19.6464 103.82 19.5789 103.954 19.5789C104.088 19.5789 104.2 19.6464 104.29 19.7812C105.073 20.7927 105.834 21.4895 106.595 21.9166C107.355 22.3437 108.385 22.546 109.683 22.546C111.16 22.546 112.301 22.2987 113.129 21.7817C113.957 21.2648 114.382 20.478 114.382 19.3991C114.382 18.7248 114.181 18.1404 113.756 17.6908C113.331 17.2188 112.57 16.7917 111.451 16.3871L107.176 14.9935C105.655 14.4765 104.513 13.7348 103.73 12.7458C102.969 11.7568 102.589 10.6554 102.589 9.44158C102.589 8.25027 102.902 7.19383 103.529 6.27225C104.155 5.35067 105.028 4.65387 106.147 4.13689C107.266 3.64238 108.564 3.37265 110.041 3.37265C111.495 3.37265 112.816 3.6199 113.98 4.13689C115.166 4.65387 116.128 5.35067 116.889 6.24977C116.978 6.33968 117.023 6.45207 117.023 6.56446C117.023 6.67685 116.978 6.76676 116.889 6.85667L115.277 8.11541C115.21 8.18284 115.121 8.20532 115.054 8.20532C114.987 8.20532 114.875 8.11541 114.718 7.95807C114.159 7.35117 113.51 6.85667 112.771 6.49703Z" fill="white"/>
</svg>
