<?xml version="1.0" encoding="utf-8"?>

<svg version="1.1" id="Layer_1" xmlns="http://www.w3.org/2000/svg" x="0px" y="0px"
	 viewBox="0 0 100 15" style="enable-background:new 0 0 100 15;" xml:space="preserve">
<style type="text/css">
	.st0{fill:#F9FAFB;}
	.st1{fill:#17874C;}
	.st2{fill-rule:evenodd;clip-rule:evenodd;fill:#17874C;}
</style>
<g>
	<g>
		<path class="st0" d="M45.1,7.5c0,1.5,0.3,2.6,0.9,3.3c0.6,0.8,1.5,1.1,2.7,1.1c1.2,0,2.1-0.4,2.7-1.1c0.6-0.8,0.9-1.9,0.9-3.3
			c0-1.4-0.3-2.5-0.9-3.3c-0.6-0.7-1.5-1.1-2.7-1.1c-1.2,0-2.1,0.4-2.7,1.1C45.4,5,45.1,6.1,45.1,7.5 M53.7,7.5
			c0,1.7-0.4,3.1-1.3,4.1c-0.9,1-2.1,1.5-3.6,1.5c-1.6,0-2.8-0.5-3.7-1.5c-0.9-1-1.3-2.3-1.3-4.1c0-1.8,0.4-3.1,1.3-4.1
			C46,2.5,47.2,2,48.8,2c1.5,0,2.7,0.5,3.6,1.5C53.3,4.4,53.7,5.8,53.7,7.5z M39.6,12.9h-1.2V3.2H35V2.1h8v1.1h-3.4V12.9z
			 M33.4,12.9H32l-5.9-9H26c0.1,1.1,0.1,2,0.1,2.9v6.1H25V2.1h1.4l5.9,9h0.1c0-0.1,0-0.6-0.1-1.3c0-0.7,0-1.2,0-1.5V2.1h1.2V12.9z
			 M22.1,2.1v7c0,1.2-0.4,2.2-1.1,2.9C20.3,12.7,19.3,13,18,13c-1.3,0-2.3-0.4-3-1.1c-0.7-0.7-1.1-1.7-1.1-2.9V2.1h1.2v7
			c0,0.9,0.2,1.6,0.7,2.1c0.5,0.5,1.2,0.7,2.2,0.7c0.9,0,1.6-0.2,2.1-0.7c0.5-0.5,0.7-1.2,0.7-2.1v-7H22.1z M6.2,7.6h1.1
			c1.1,0,1.9-0.2,2.4-0.5c0.5-0.4,0.7-0.9,0.7-1.7c0-0.7-0.2-1.2-0.7-1.6C9.3,3.4,8.6,3.2,7.6,3.2H6.2V7.6z M11.8,5.3
			c0,1.1-0.4,1.9-1.1,2.5C9.9,8.4,8.9,8.7,7.5,8.7H6.2v4.2H5V2.1h2.8C10.4,2.1,11.8,3.2,11.8,5.3z"/>
		<path class="st1" d="M95,13h-6V2.3h6v1.1h-4.7v3.5h4.5V8h-4.5v4H95V13z M85.3,7.6c0-1.4-0.4-2.5-1.1-3.2c-0.7-0.7-1.7-1.1-3.1-1.1
			h-1.8v8.6h1.5c1.5,0,2.6-0.4,3.4-1.1C84.9,10.1,85.3,9,85.3,7.6z M86.6,7.6c0,1.8-0.5,3.1-1.4,4.1c-1,0.9-2.3,1.4-4.2,1.4h-3V2.3
			h3.3c1.7,0,3,0.5,3.9,1.4C86.2,4.6,86.6,5.9,86.6,7.6z"/>
		<path class="st1" d="M60.9,3.1c-1.2,0-2.1,0.4-2.8,1.2c-0.7,0.8-1,1.9-1,3.2c0,1.4,0.3,2.5,1,3.3c0.7,0.8,1.6,1.2,2.8,1.2
			c0.7,0,1.6-0.1,2.6-0.4v1.1c-0.7,0.3-1.7,0.4-2.8,0.4c-1.6,0-2.8-0.5-3.7-1.4c-0.9-1-1.3-2.3-1.3-4.1c0-1.1,0.2-2.1,0.6-2.9
			c0.4-0.8,1-1.5,1.8-1.9C59,2.2,59.9,2,61,2c1.1,0,2.1,0.2,3,0.6l-0.5,1.1C62.6,3.3,61.8,3.1,60.9,3.1"/>
		<path class="st2" d="M70.2,2c0,0.6,0,1.2,0,1.7c0,0.2-0.1,0.4-0.3,0.5c-1.1,1-2.2,1.9-3.3,2.9c-0.1,0.1-0.3,0.2-0.5,0.3
			c1,0.7,1.9,1.7,2.9,2.5c0.3,0.2,0.6,0.5,0.8,0.7c0.2,0.1,0.3,0.3,0.3,0.6c0,0.6,0,1.1,0,1.7c-0.3-0.2-0.5-0.4-0.7-0.6
			C68,11,66.4,9.6,64.8,8.2c-0.1-0.1-0.1-0.2-0.2-0.4c-0.1-0.5,0.1-0.9,0.5-1.2c1.6-1.4,3.2-2.9,4.8-4.4C70.1,2.2,70.1,2.1,70.2,2"
			/>
		<path class="st2" d="M71.2,2c1.1,1,2.1,1.9,3.1,2.8c0.7,0.7,1.5,1.4,2.2,2c0.2,0.1,0.2,0.3,0.2,0.5c0.1,0.5-0.1,0.8-0.5,1.1
			c-1.6,1.5-3.2,3-4.9,4.4c0,0-0.1,0.1-0.2,0.2c0-0.7,0-1.3,0-1.9c0-0.2,0.1-0.3,0.2-0.4c1.1-0.9,2.1-1.9,3.2-2.8
			c0.2-0.1,0.3-0.3,0.5-0.4c-1.3-1-2.4-2.1-3.6-3.2c-0.3-0.2-0.4-0.5-0.4-0.8C71.2,3,71.2,2.5,71.2,2"/>
	</g>
</g>
</svg>
