<?xml version="1.0" encoding="utf-8"?>
<!-- Generator: Adobe Illustrator 26.0.0, SVG Export Plug-In . SVG Version: 6.00 Build 0)  -->
<svg version="1.1" xmlns="http://www.w3.org/2000/svg" xmlns:xlink="http://www.w3.org/1999/xlink" x="0px" y="0px"
	 viewBox="0 0 300 300" style="enable-background:new 0 0 300 300;" xml:space="preserve">
<style type="text/css">
	.st0{fill:#FFFFFF;}
</style>
<g id="Layer_1">
</g>
<g id="Layer_2">
	<path class="st0" d="M150,5l125.6,72.5v145L150,295L24.4,222.5v-145L150,5z"/>
	<g>
		<path d="M197.6,169.6c-7.9,0-15.8,0-23.7,0c-1.5,0-2.7,0.4-3.8,1.6c-6.5,7-14.5,10.8-24.2,10.6c-9.1-0.2-18.2,0-27.4-0.1
			c-2.1,0-3,0.5-2.9,2.8c0.1,6.9,0.1,13.8,0,20.6c0,2.2,0.8,2.8,2.8,2.7c2.4-0.1,4.5-0.8,6.4-2.4c1.6-1.3,3.1-2.7,4.6-3.9
			c6-4.8,14.4-5,20.6-0.5c1.2,0.9,2.3,1.9,3.5,2.9c2.1,1.9,4.4,3.5,7.4,3.8c1.7,0.2,2.2,1.7,1.7,4.3c-0.3,1.6-1.4,1.3-2.5,1.2
			c-4.8-0.5-8.6-3.1-11.7-6.5c-4.3-4.4-11.8-4.5-16.1-0.5c-2,1.9-4.1,3.9-6.7,5.2c-6.3,3.2-14,2.3-19.2-2.4
			c-1.2-1.1-2.5-2.3-3.8-3.3c-4.7-3.7-10.7-3.3-15,0.8c-3.6,3.4-7.5,6.4-12.7,6.8c-5.7,0.5-10.3-1.7-14.3-5.5
			c-2.4-2.3-4.9-4.3-8.4-4.6c-1.6-0.1-1.3-1.5-1.3-2.5c-0.1-3.2,0.1-3.4,3.3-2.8c3.8,0.7,7,2.6,9.7,5.3c2.9,2.9,6.1,4.8,10.4,4.4
			c2.3-0.2,4.4-0.9,6.2-2.4c2.1-1.8,4-3.8,6.4-5.2c0.9-0.6,1-1.5,1-2.5c0-12.7,0-25.3,0-38c0-1.1-0.4-2.1-0.8-3.1
			c-9.1-22.4-9-44.7,1.2-66.7c4-8.5,9.8-15.5,18.4-19.8c3.8-1.9,7.7-2.8,11.9-2.7c9.6,0.1,19.1,0.2,28.7,0c8.9-0.2,16,3.4,22,9.6
			c1.7,1.7,3.3,2.4,5.7,2.4c13.8-0.1,27.7,0.4,41.5-0.2c12.4-0.5,20.4,5.4,26,15.7c4,7.4,6,15.4,6.6,23.6
			c0.8,11.3-0.4,22.4-5.2,32.9c-3,6.4-6.8,12.1-13.2,15.7c-3,1.7-6.3,2.6-9.7,2.6C213.1,169.6,205.3,169.6,197.6,169.6z M199.8,84.9
			c-7.2,0-14.5,0-21.7,0c-1.7,0-2.3,0.2-1.3,2c1.3,2.2,2.4,4.5,3.3,6.8c5,12,6.7,24.5,5.6,37.4c-0.8,10.6-3.3,20.7-8.5,30
			c-1.5,2.7-1.4,2.8,1.7,2.8c13.7,0,27.5-0.1,41.2,0c4.5,0,8.1-1.6,11.3-4.6c4.1-3.9,6.7-8.7,8.6-13.9c3.4-9.5,4.3-19.3,3-29.3
			c-1-7.8-3.2-15.2-7.6-21.7c-4.1-6.2-9.5-10-17.5-9.5C211.9,85.2,205.9,84.9,199.8,84.9z M135.7,176c4,0,7.9-0.1,11.9,0
			c5.6,0.1,10.5-1.9,14.8-5.3c6.9-5.4,10.9-12.8,13.8-20.9c4.3-11.8,5.1-24,3.5-36.3c-1.4-10.7-4.7-20.7-11.5-29.4
			c-4.6-5.8-10.1-10.4-17.9-11.2c-4.9-0.5-9.8-0.2-14.7-0.1c-0.1,0-0.1,0.2-0.3,0.4c8.3,6.6,13.3,15.3,16.6,25.1
			c3.9,11.6,5,23.4,3.6,35.5c-1.4,12.2-5,23.8-12.5,33.8C140.9,170.7,138.4,173.3,135.7,176z M111.2,141.1c3.7,0,7.4-0.1,11.1,0
			c1.9,0.1,2.5-0.4,2.1-2.5c-3-15.7-1.7-30.9,6.2-45.2c0.4-0.7,0.6-1.2,0.1-2c-2.9-4.5-9.8-7.4-15-6.3c-5.8,1.3-9.5,5.3-12.5,10.1
			c-4.7,7.5-6.7,15.8-7.3,24.5c-0.4,6.2,0,12.4,1.3,18.5c0.4,1.9,1.1,3,3.4,2.8C104.1,141,107.7,141.1,111.2,141.1z M150.5,121.9
			c0.2-5.5-1.1-13.4-3.6-21.1c-2.7-8.3-6.8-15.8-13.4-21.7c-7.5-6.8-16.8-8.1-25.6-3.3c-7.4,4.1-12.1,10.7-15.5,18.2
			c-6,13.1-7.3,27-5.6,41.2c0.4,3.4,1.1,6.9,2.1,10.2c0.2,0.5,0.2,1.8,1.3,0.8c1.5-1.4,2.6-2.7,1.9-5.2c-3.3-13.2-2.7-26.2,1.7-39.1
			c2.1-6.1,5.2-11.6,9.9-16.1c8.9-8.6,20.6-8.5,29.4,0.2c4.3,4.3,7.2,9.4,9.3,15c3.9,10.4,4.9,21.1,3.6,32
			c-1.2,9.7-3.9,18.8-10,26.7c-4.2,5.4-9.4,9.2-16.4,9.9c-3.5,0.3-4.3,1.2-4,4.7c0.1,1.2,0.6,1.7,1.8,1.7c1.6,0,3.2,0.1,4.8-0.3
			c8.6-1.9,14.3-7.6,18.8-14.7C147.9,149.8,150.4,137.5,150.5,121.9z M140.8,124.9c0.1-8.7-1.3-16.7-4.6-24.3
			c-0.4-0.8-0.5-2.2-1.5-2.2c-1.1,0-1.3,1.4-1.7,2.3c-4.7,11.2-5.8,22.8-3.7,34.7c1.2,7,0.2,5.6,7.1,5.8c1.7,0.1,2.4-0.7,2.8-2.3
			C140.3,134.1,141,129.4,140.8,124.9z M136.6,147.1c-0.5-0.5-1-0.5-1.5-0.5c-11.6,0-23.2,0-34.7,0c-3.9,0-6.7,3-6.7,7
			c0,13.9,0,27.8,0,41.7c0,0.8-0.4,2.1,0.8,2.1c1.2,0,0.7-1.3,0.8-2.1c0.1-0.6,0-1.3,0-2c0-10.9,0-21.7,0-32.6
			c0-7.8,5.3-13.1,13.1-13.1c8.5,0,17.1,0,25.6,0C134.8,147.7,135.7,148,136.6,147.1z M132.9,153.9c-0.6-0.7-1.2-0.5-1.8-0.5
			c-7.6,0-15.2,0-22.8,0c-5,0-7.4,2.5-7.4,7.5c0,11.7,0,23.3,0,35c0,0.6,0,1.2,0.1,1.7c0.1,0.6,0.3,1.2,1,1.2c0.7,0,0.5-0.7,0.6-1.2
			c0-0.6,0-1.2,0-1.7c0-9.6,0-19.1,0-28.7c0-7.1,4.3-12.1,11.4-12.7c5.3-0.4,10.7-0.2,16-0.2C130.9,154.3,131.9,154.5,132.9,153.9z
			 M127.1,160.2c-4.5,0-9-0.2-13.5,0.1c-3,0.2-5.2,3.1-5.2,6.1c-0.1,11.8,0,23.6,0,35.4c0,1,0.2,2,1.6,2.4c0-1,0-1.7,0-2.5
			c0-9,0-17.9,0-26.9c0-8.9,4.9-13.8,13.8-13.9C124.9,160.8,126,161.1,127.1,160.2z"/>
		<path d="M50.8,220c0-2.9,0.2-3.1,3-2.7c3.9,0.6,7.1,2.5,9.9,5.1c1.5,1.4,3,3,5,3.8c4.7,2,8.9,1,12.7-2.2c1.4-1.2,2.8-2.5,4.3-3.6
			c5.9-4.4,14-4.4,19.8,0c2.1,1.6,4,3.4,6.1,4.9c4,2.8,8.7,2.7,12.8-0.2c1.9-1.4,3.6-3.1,5.5-4.5c6.4-4.7,14.2-4.6,20.6,0.1
			c2,1.5,3.6,3.4,5.7,4.7c1.5,0.9,3,1.7,4.8,1.9c2.8,0.3,1.5,2.5,1.7,3.9c0.2,1.6-1,1.7-2.2,1.6c-3.5-0.2-6.5-1.7-9.2-3.9
			c-1.3-1.1-2.5-2.2-3.8-3.3c-4.1-3.5-9.7-3.7-14-0.5c-1.2,0.9-2.5,1.8-3.5,2.9c-6.5,6.6-17.8,6.5-23.9,0.2c-0.9-0.9-2-1.7-3-2.5
			c-4.7-3.9-10.4-3.8-15.1,0.1c-2,1.7-3.9,3.7-6.3,5c-6.6,3.6-15,2.7-20.3-2.6c-2.7-2.7-5.5-4.8-9.4-5.4
			C50,222.4,51.2,220.8,50.8,220z"/>
	</g>
</g>
</svg>
